<svg width="12" height="12" viewBox="0 0 12 12" fill="none" xmlns="http://www.w3.org/2000/svg">
    <path fill-rule="evenodd" clip-rule="evenodd" d="M4.14454 9.58146C4.40149 9.36934 4.29749 9.1443 4.65833 9.06158C4.64221 9.24099 4.78353 9.42291 4.87384 9.58146C4.78042 9.24241 4.87182 9.08697 4.9418 8.91689C5.23983 8.19215 4.37467 7.72308 3.78482 7.60841C3.98632 7.45644 4.12701 7.3063 4.37998 7.28033C4.06381 7.27558 3.75222 7.34873 3.47287 7.49284C2.52016 7.98328 1.76496 7.00946 2.26442 6.12694C2.53076 5.65512 2.83411 5.64743 3.10669 5.32813C3.17208 5.49199 3.19443 5.67139 3.17062 5.8486C3.2558 5.65365 3.26972 5.43694 3.2122 5.23541C3.12335 4.92544 2.86892 4.92343 2.82165 4.47758C2.81176 4.38431 2.73135 4.52988 2.59634 4.40662C2.5641 4.37699 2.49926 4.32414 2.45676 4.3481C2.38348 4.38852 2.30197 4.35541 2.25782 4.37864C2.1862 4.41704 2.1644 4.33713 2.086 4.39364C1.94843 4.49257 1.93377 4.38175 1.80152 4.39876C1.63592 4.41997 1.52729 4.63979 1.43277 4.53098C1.34613 4.43204 1.25673 4.60102 1.1939 4.60102C1.15016 4.60102 0.926295 4.89339 0.827906 4.62644C0.754084 4.42692 0.588488 4.81663 0.500194 4.68441C0.472168 4.64235 0.395231 4.78389 0.345956 4.64399C0.334598 4.61181 0.347055 4.57194 0.253998 4.61857C0.0697177 4.71038 0.135114 4.56316 0.0764954 4.48581C0.00487142 4.39089 -0.0205908 4.39089 0.0178773 4.23691C0.0484686 4.11457 0.00175733 3.93206 0.189152 3.90097C0.236962 3.8931 0.281109 3.89621 0.347055 3.76418C0.42912 3.59886 0.54544 3.67804 0.524558 3.60288C0.493966 3.49297 0.647106 3.34466 0.71818 3.2748C0.812702 3.18044 0.93635 3.04255 0.980313 2.90978C0.98819 2.88692 1.03069 2.82108 1.06806 2.77921C1.13767 2.70203 1.15837 2.77665 1.26278 2.73824C1.33807 2.71026 1.27945 2.78652 1.35364 2.67387C1.37745 2.63803 1.44303 2.67186 1.51612 2.63766C1.73786 2.53391 1.75851 2.53564 1.81361 2.29458C1.82405 2.24905 1.83486 2.21375 1.88157 2.21832C1.97554 2.22765 1.99679 2.17059 2.05449 2.17169C2.10596 2.17315 2.12465 2.14426 2.15213 2.10951C2.30582 1.90945 2.3899 2.05867 2.45804 2.04313C2.51043 2.03124 2.47727 1.91146 2.61594 1.94877C2.81378 2.00162 2.74894 1.90158 2.87606 1.93432C3.02517 1.97272 3.03543 2.10951 3.13783 2.14225C3.26093 2.1812 3.319 2.32531 3.40106 2.32366C3.68976 2.31891 3.60256 2.53561 3.78482 2.6212C3.6478 2.47289 3.79526 2.23296 3.48367 2.20187C3.41406 2.1951 3.3897 2.08465 3.28639 2.03289C3.16127 1.97072 3.17428 1.8385 2.94878 1.784C3.00648 1.7456 3.02462 1.78821 3.05997 1.71615C3.1098 1.61447 3.13783 1.67372 3.15706 1.61136C3.17465 1.55339 3.16182 1.52065 3.29829 1.46835C3.44008 1.41385 3.57655 1.2884 3.70276 1.29517C3.81432 1.30084 3.86121 1.2211 3.85443 1.12052C3.84766 1.01628 3.82641 0.873271 4.04494 0.917344C4.17628 0.943313 4.17372 0.919356 4.17317 0.824626C4.17207 0.729713 4.20742 0.67229 4.32228 0.676314C4.40636 0.678874 4.48897 0.674302 4.52066 0.568417C4.54558 0.484477 4.69817 0.463263 4.77968 0.431625C5.05134 0.326472 5.08908 0.47771 5.1629 0.344576C5.22317 0.236314 5.33014 0.0512432 5.45104 0.182914C5.47541 0.209431 5.49775 0.228999 5.57927 0.130977C5.64778 0.0495973 5.81081 -0.0535448 5.86906 0.0869041C5.89196 0.142316 5.94289 0.198824 5.98685 0.12732C5.99564 0.113238 6.00663 0.0976938 6.03246 0.091476C6.07606 0.0816007 6.09987 0.0691651 6.12185 0.0583754C6.30888 -0.03544 6.3904 -0.0292222 6.30467 0.173953C6.18228 0.465662 6.98335 -0.0038384 6.76061 0.312939C6.67854 0.429065 7.22113 0.494901 7.30008 0.547752C7.34368 0.576829 7.34166 0.6017 7.42373 0.618342C7.65637 0.663878 7.6527 0.642116 7.66681 0.842365C7.67304 0.933072 7.75931 0.882232 7.75931 0.99781C7.75931 1.49157 8.16321 1.24302 8.22918 1.36594C8.23998 1.3866 8.25665 1.40489 8.29714 1.40489C8.42445 1.40489 8.43159 1.37801 8.48929 1.48682C8.51274 1.53089 8.53179 1.5532 8.59829 1.57552C8.7005 1.60971 8.69427 1.62215 8.65599 1.70298C8.60983 1.79881 8.682 1.79734 8.77487 1.80612C8.86005 1.8149 8.90109 1.86409 8.9597 1.93359C9.05478 2.04606 9.20279 2.07824 9.32845 2.14353C9.40007 2.18029 9.32955 2.27209 9.45045 2.36792C9.53984 2.43851 9.5849 2.42863 9.46492 2.51989C8.9584 2.90622 9.653 2.80122 9.84703 3.1605C9.89063 3.24079 9.94833 3.34082 10.0319 3.43317C10.2249 3.64512 10.117 3.70383 10.2215 3.83641C10.2817 3.91267 10.2345 3.89438 10.333 3.96296C10.5657 4.12463 10.2427 4.23197 10.0599 4.15882C9.97636 4.12572 9.91756 4.08 9.93368 4.13505C9.94669 4.18022 9.92434 4.21186 9.88898 4.24605C9.78201 4.34975 9.99395 4.30933 10.0443 4.30147C10.1991 4.27806 10.6129 4.23106 10.6098 4.3876C10.6056 4.59078 10.7267 4.6365 10.8243 4.64985C10.9828 4.67216 11.0278 4.70215 11.115 4.85778C11.194 4.99822 11.2401 4.92306 11.3621 5.04742C11.4457 5.133 11.5486 5.28534 11.3793 5.30765C11.3389 5.31277 11.2947 5.3082 11.276 5.32319C11.2257 5.36215 11.1888 5.37403 11.1566 5.38427C10.9033 5.46767 11.276 5.50973 11.3674 5.48851C11.4475 5.47041 11.5466 5.44298 11.6239 5.46419C11.6732 5.47772 11.6779 5.53734 11.8336 5.56276C11.8855 5.57154 11.8642 5.65347 11.8388 5.71053C11.7494 5.90803 12.0029 5.80324 11.9763 5.95265C11.9613 6.03916 12.0698 6.17869 11.9183 6.1818C11.8695 6.1829 11.8186 6.16826 11.8201 6.21289C11.8232 6.31036 11.6783 6.186 11.5484 6.31969C11.5001 6.36943 11.3854 6.40418 11.3147 6.31146C11.2878 6.27616 11.255 6.24763 11.1288 6.29024C11.0047 6.3323 10.9205 6.47787 10.8661 6.25294C10.8516 6.19387 10.823 6.19277 10.7441 6.16369C10.6371 6.12383 10.6464 5.92522 10.4896 6.05324C10.4372 6.0953 10.3775 6.1081 10.3059 6.08853C10.1828 6.05488 10.0463 6.0995 10.0348 6.00038C10.0161 5.83506 9.87067 5.71839 9.7113 5.72662C9.58509 5.73393 9.47353 5.75771 9.40703 5.60062C9.45631 5.78057 9.58417 5.79245 9.7342 5.79245C9.85821 5.79245 9.93148 5.86195 9.95328 6.00038C9.99175 6.24452 10.1282 6.09109 10.3011 6.20575C10.3863 6.26171 10.4475 6.35242 10.4818 6.45776C10.5171 6.56657 10.799 6.436 10.7232 6.69623C10.691 6.80815 10.6313 6.85077 10.5155 6.94148C10.1719 7.21252 10.0867 6.9449 9.98534 7.16165C9.93295 7.27412 9.9313 7.19072 9.81754 7.24559C9.62905 7.33575 9.50852 7.1269 9.3704 7.20353C9.21414 7.29058 9.2266 7.12946 9.0687 7.23772C8.93791 7.32733 8.80492 7.16988 8.74208 7.41493C8.68859 7.62432 8.46695 7.62908 8.36565 7.51661C8.20408 7.33776 8.25244 7.72765 8.05515 7.5669C7.95019 7.48241 7.87289 7.60585 7.7192 7.60841C7.43618 7.61262 7.30063 7.34818 7.16251 7.50893C6.99783 7.69967 6.87839 7.47985 6.87583 7.28546C6.87326 7.08685 6.2096 7.15323 5.86064 7.04954C5.66756 6.99249 5.06105 7.06198 5.25834 6.72659C4.93997 7.08685 5.6498 7.06454 5.84305 7.14647C5.95937 7.19511 6.05334 7.23462 6.166 7.25162C6.27756 7.52484 6.34973 7.82073 6.36072 8.18155C6.39754 7.98349 6.40597 7.78141 6.38509 7.58226C6.34809 7.22855 6.59207 7.75799 6.62139 7.83372C6.77906 8.24948 6.60254 9.0127 6.20337 9.24186C6.10115 8.91122 5.93812 8.60107 5.72105 8.3284C5.94069 8.68976 6.24972 9.4284 6.00205 9.85084C5.79597 9.76635 5.62763 9.6078 5.53109 9.40554C5.59649 9.71295 5.88427 10.0535 6.23158 9.941C6.83747 9.74442 6.83484 10.1558 7.63829 10.2242C8.22226 10.3268 9.05554 10.2242 9.45367 10.2584C9.67078 10.2771 10.5843 10.4403 10.5803 10.687C10.5642 11.7076 10.205 11.7615 9.2614 11.8579C8.71314 11.9139 8.28908 11.9365 7.69905 11.9601C6.37959 12.013 4.79232 12.0141 3.52635 11.9587C2.90579 11.9315 2.60715 11.9265 1.94825 11.8332C1.28934 11.74 0.927923 11.4978 0.938365 10.7369C0.942777 10.4562 1.71448 10.1885 1.96638 10.1579C2.26442 10.1216 2.73942 10.1626 3.17171 10.0507C3.62289 9.9335 3.81171 9.85623 4.14454 9.58146ZM8.72725 3.99533C8.584 3.95638 8.68365 3.86787 8.4369 3.98235C8.29146 4.04983 8.27076 3.86256 8.12385 3.89585C7.97638 3.92895 7.91612 3.78027 7.69648 3.74241C7.42391 3.69523 7.62065 3.61952 7.1887 3.71279C7.10554 3.73034 7.03556 3.6294 6.77636 3.66506C6.47265 3.70712 6.57908 3.74223 6.39516 3.55881C6.16197 3.32655 5.97714 3.48255 5.73772 3.38873C5.92255 3.54216 6.05298 3.40592 6.27096 3.593C6.06379 3.71992 5.82235 4.33329 5.44591 4.37169C5.85569 4.47063 6.05389 4.69831 6.42997 4.75317C6.86246 4.81535 7.18596 4.86143 7.41713 5.24309C7.67523 5.67029 7.79357 5.42396 8.16634 5.39817C8.4021 5.38208 8.40778 5.22755 8.4468 5.06388C8.50083 4.83784 8.55524 4.82742 8.71314 4.79743C8.89541 4.76268 8.85236 4.71184 8.80455 4.65332C8.67577 4.49477 8.82067 4.46258 8.92966 4.42838C9.12017 4.36876 8.96593 4.35889 8.96593 4.2744C8.72761 4.19192 8.91134 4.07488 9.04433 4.02295C9.18923 4.11932 9.25206 4.10323 9.31599 4.09043C9.40942 4.07068 9.4717 4.11786 9.55065 4.06391C9.43433 4.07744 9.41051 4.03026 9.31233 4.04526C9.26818 4.05202 9.21579 4.05513 9.12438 3.99643C8.97069 3.89694 8.89284 4.03995 8.72725 3.99533ZM6.77325 5.50863L5.83811 5.00572C4.71081 4.39967 4.19735 5.29448 3.83538 6.2758L3.17904 6.94969C3.64945 6.63807 4.03322 6.29079 4.52799 6.2939C4.60708 6.29429 5.82737 6.74148 5.63093 6.20941C5.59557 6.11358 5.70731 6.16113 5.73791 6.02379C5.77216 5.8667 5.78462 5.89359 5.90515 5.9938C5.98099 6.05708 6.08577 6.09804 6.05371 5.94918C6.03961 5.8828 6.02001 5.82318 6.29368 5.94552C6.423 6.00313 6.3752 5.88645 6.5538 5.86304C6.80201 5.83086 6.74907 5.5763 6.86594 5.54063C6.93078 5.52034 6.99618 5.59349 7.11836 5.46968C7.16086 5.4267 7.21233 5.3872 7.31785 5.41628C7.1953 5.34935 7.12935 5.40384 7.06707 5.44426C6.94159 5.52619 6.89268 5.41061 6.77325 5.50863ZM4.86193 3.73364C4.99895 3.71498 5.13615 3.70054 5.27482 3.69121C5.30175 3.68188 5.32465 3.66268 5.3382 3.63671C5.35121 3.61129 5.35322 3.5813 5.34443 3.55369C5.35268 3.4734 5.39939 3.40172 5.47009 3.3624L5.469 3.35984C5.24771 3.36093 5.06911 3.45164 4.84325 3.55478C4.798 3.57545 4.822 3.65738 4.74195 3.75119C4.73718 3.85324 4.66776 3.94102 4.56902 3.9679C4.53898 3.97101 4.51096 3.98655 4.49209 4.01033C4.47285 4.03465 4.46516 4.06519 4.46974 4.09537C4.41167 4.16431 4.3155 4.18772 4.23252 4.15242C4.06124 4.08092 3.93338 4.09171 3.84875 4.18552C3.95518 4.12225 4.08872 4.12755 4.18984 4.19851C4.30451 4.25922 4.44684 4.22704 4.52433 4.1228C4.53514 4.07141 4.57928 4.0341 4.63186 4.03154C4.7533 3.98253 4.82969 3.88286 4.86193 3.73364Z" />
</svg>
