<svg width="24" height="24" viewBox="0 0 24 24" fill="none" xmlns="http://www.w3.org/2000/svg">
	<path fill-rule="evenodd" clip-rule="evenodd" d="M17.6113 9H16.1113V11.75H13.377L13.377 13.25H16.1113V16H17.6113V13.25H20.377V11.75H17.6113V9Z" fill="currentColor"/>
	<path fill-rule="evenodd" clip-rule="evenodd" d="M8.37305 11.7344C6.99234 11.7344 5.87305 10.6151 5.87305 9.23438C5.87305 7.85366 6.99234 6.73438 8.37305 6.73438C9.75376 6.73438 10.873 7.85366 10.873 9.23438C10.873 10.6151 9.75376 11.7344 8.37305 11.7344ZM8.37305 10.2344C7.82076 10.2344 7.37305 9.78666 7.37305 9.23438C7.37305 8.68209 7.82076 8.23438 8.37305 8.23438C8.92533 8.23438 9.37305 8.68209 9.37305 9.23438C9.37305 9.78666 8.92533 10.2344 8.37305 10.2344Z" fill="currentColor"/>
	<path d="M3.62305 15.7344V17.2656H5.12305V15.7344C5.12305 15.044 5.68269 14.4844 6.37305 14.4844H8.87305V12.9844H6.37305C4.85426 12.9844 3.62305 14.2156 3.62305 15.7344Z" fill="currentColor"/>
</svg>
