<svg width="24" height="24" viewBox="0 0 24 24" fill="none" xmlns="http://www.w3.org/2000/svg">
	<path fill-rule="evenodd" clip-rule="evenodd" d="M15.5 11C16.8807 11 18 9.88071 18 8.5C18 7.11929 16.8807 6 15.5 6C14.1193 6 13 7.11929 13 8.5C13 9.88071 14.1193 11 15.5 11ZM15.5 9.5C16.0523 9.5 16.5 9.05228 16.5 8.5C16.5 7.94772 16.0523 7.5 15.5 7.5C14.9477 7.5 14.5 7.94772 14.5 8.5C14.5 9.05228 14.9477 9.5 15.5 9.5Z" fill="currentColor"/>
	<path d="M13.25 17V15C13.25 13.4812 12.0188 12.25 10.5 12.25H6.5C4.98122 12.25 3.75 13.4812 3.75 15V17H5.25V15C5.25 14.3096 5.80964 13.75 6.5 13.75H10.5C11.1904 13.75 11.75 14.3096 11.75 15V17H13.25Z" fill="currentColor"/>
	<path d="M20.25 15V17H18.75V15C18.75 14.3096 18.1904 13.75 17.5 13.75H15V12.25H17.5C19.0188 12.25 20.25 13.4812 20.25 15Z" fill="currentColor"/>
	<path fill-rule="evenodd" clip-rule="evenodd" d="M11 8.5C11 9.88071 9.88071 11 8.5 11C7.11929 11 6 9.88071 6 8.5C6 7.11929 7.11929 6 8.5 6C9.88071 6 11 7.11929 11 8.5ZM9.5 8.5C9.5 9.05228 9.05228 9.5 8.5 9.5C7.94772 9.5 7.5 9.05228 7.5 8.5C7.5 7.94772 7.94772 7.5 8.5 7.5C9.05228 7.5 9.5 7.94772 9.5 8.5Z" fill="currentColor"/>
</svg>
