<svg width="24" height="24" viewBox="0 0 24 24" fill="none" xmlns="http://www.w3.org/2000/svg">
	<path fill-rule="evenodd" clip-rule="evenodd" d="M10.3751 14.7499L6.37506 14.7499C5.68471 14.7499 5.12506 15.3096 5.12506 15.9999L5.12506 16.9999H3.62506L3.62506 15.9999C3.62506 14.4812 4.85628 13.2499 6.37506 13.2499L10.3751 13.2499V14.7499Z" fill="currentColor"/>
	<path fill-rule="evenodd" clip-rule="evenodd" d="M8.37506 10.5001C8.92735 10.5001 9.37506 10.0523 9.37506 9.50006C9.37506 8.94778 8.92735 8.50006 8.37506 8.50006C7.82278 8.50006 7.37506 8.94778 7.37506 9.50006C7.37506 10.0523 7.82278 10.5001 8.37506 10.5001ZM8.37506 12.0001C9.75577 12.0001 10.8751 10.8808 10.8751 9.50006C10.8751 8.11935 9.75577 7.00006 8.37506 7.00006C6.99435 7.00006 5.87506 8.11935 5.87506 9.50006C5.87506 10.8808 6.99435 12.0001 8.37506 12.0001Z" fill="currentColor"/>
	<path d="M19.6249 16.9999L19.6249 10.8749C19.6249 10.7369 19.513 10.6249 19.3749 10.6249L14.3828 10.6249C14.2447 10.6249 14.1328 10.7369 14.1328 10.8749L14.1328 17.2499L19.3749 17.2499C19.513 17.2499 19.6249 17.138 19.6249 16.9999Z" fill="currentColor" stroke="currentColor" stroke-width="1.5"/>
	<path d="M17.1523 13.3921C17.05 13.5919 16.8533 13.8971 16.557 14.3116L14.9788 16.5245H18.7788V15.3845H17.2145L17.6768 14.742C18.0063 14.2866 18.2408 13.9063 18.3749 13.6036C18.515 13.2987 18.5869 12.997 18.5869 12.6995C18.5869 12.4354 18.5255 12.1905 18.4006 11.9674C18.2784 11.7399 18.092 11.5602 17.846 11.4295C17.5954 11.2917 17.2988 11.2265 16.9635 11.2265C16.6293 11.2265 16.3203 11.2732 16.0385 11.3689C15.7591 11.4638 15.4929 11.6055 15.24 11.7919L15.1689 11.8443L15.3445 13.1347L15.5827 12.9176C15.7734 12.7436 15.9664 12.6079 16.1611 12.5083C16.3458 12.4138 16.5458 12.3665 16.7639 12.3665C16.9507 12.3665 17.0749 12.4151 17.1595 12.4955L17.1644 12.4997C17.2526 12.5769 17.3058 12.6902 17.3058 12.8605C17.3058 13.0193 17.2579 13.1951 17.1535 13.3896L17.1523 13.3921Z" fill="white"/>
</svg>
