<svg width="24" height="25" viewBox="0 0 24 25" fill="none" xmlns="http://www.w3.org/2000/svg">
<g id="lesson-plan">
<g id="Shape">
<path d="M8.85062 5.07081L7.6469 4.17578L5.56353 6.97769L4.44947 6.14687L3.55273 7.34931L5.87095 9.07813L8.85062 5.07081Z" fill="#656A71"/>
<path d="M19.9999 7.99955H11.111V6.49955H19.9999V7.99955Z" fill="#656A71"/>
<path d="M19.9999 12.9996H11.111V11.4996H19.9999V12.9996Z" fill="#656A71"/>
<path fill-rule="evenodd" clip-rule="evenodd" d="M5.99988 14.2496C7.10445 14.2496 7.99988 13.3541 7.99988 12.2496C7.99988 11.145 7.10445 10.2496 5.99988 10.2496C4.89531 10.2496 3.99988 11.145 3.99988 12.2496C3.99988 13.3541 4.89531 14.2496 5.99988 14.2496ZM5.99988 13.2496C6.55216 13.2496 6.99988 12.8018 6.99988 12.2496C6.99988 11.6973 6.55216 11.2496 5.99988 11.2496C5.44759 11.2496 4.99988 11.6973 4.99988 12.2496C4.99988 12.8018 5.44759 13.2496 5.99988 13.2496Z" fill="#656A71"/>
<path fill-rule="evenodd" clip-rule="evenodd" d="M7.99988 17.2496C7.99988 18.3541 7.10445 19.2496 5.99988 19.2496C4.89531 19.2496 3.99988 18.3541 3.99988 17.2496C3.99988 16.145 4.89531 15.2496 5.99988 15.2496C7.10445 15.2496 7.99988 16.145 7.99988 17.2496ZM6.99988 17.2496C6.99988 17.8018 6.55216 18.2496 5.99988 18.2496C5.44759 18.2496 4.99988 17.8018 4.99988 17.2496C4.99988 16.6973 5.44759 16.2496 5.99988 16.2496C6.55216 16.2496 6.99988 16.6973 6.99988 17.2496Z" fill="#656A71"/>
<path d="M11.111 17.9996H19.9999V16.4996H11.111V17.9996Z" fill="#656A71"/>
</g>
</g>
</svg>
