<svg width="350" height="250" viewBox="0 0 350 250" fill="none" xmlns="http://www.w3.org/2000/svg">
<g clip-path="url(#clip0_3473_44367)">
<rect width="518" height="353" transform="translate(-84 -52)" fill="#FDF5FE"/>
<path d="M325 285V-14.5" stroke="#750771" stroke-dasharray="2.35 2.35"/>
<path d="M25 278V71.6957C25 59.1612 35.1612 49 47.6956 49H151.804C164.339 49 174.5 38.8388 174.5 26.3043V-6.5" stroke="#750771" stroke-dasharray="2.35 2.35"/>
<path d="M325 49H197.288C184.753 49 174.592 59.1612 174.592 71.6956V176.304C174.592 188.839 164.431 199 151.896 199H25" stroke="#750771" stroke-dasharray="2.35 2.35"/>
<path d="M112.058 116.981L111.975 116.488L111.462 116.574L111.568 117.083L112.058 116.981ZM112.058 116.981C111.975 116.488 111.975 116.488 111.975 116.488L111.976 116.488L111.979 116.487L111.993 116.485L112.046 116.476C112.094 116.468 112.165 116.456 112.257 116.44C112.441 116.408 112.712 116.361 113.057 116.299C113.747 116.176 114.733 115.997 115.917 115.769C118.285 115.315 121.439 114.671 124.592 113.913C127.749 113.153 130.886 112.284 133.226 111.381C134.4 110.928 135.347 110.476 135.992 110.039C136.315 109.821 136.542 109.62 136.684 109.441C136.825 109.263 136.86 109.137 136.86 109.057C136.86 109.053 136.86 109.034 136.833 108.993C136.803 108.947 136.745 108.881 136.639 108.801C136.423 108.638 136.076 108.463 135.584 108.286C134.607 107.933 133.184 107.612 131.441 107.326C127.964 106.754 123.313 106.332 118.647 106.025C113.985 105.718 109.321 105.525 105.822 105.409C104.072 105.351 102.615 105.313 101.594 105.289C101.084 105.277 100.684 105.268 100.411 105.263C100.274 105.26 100.17 105.258 100.099 105.257L100.019 105.255L100.001 105.255L99.9827 105.255L99.903 105.257C99.8326 105.258 99.728 105.26 99.5915 105.263C99.3185 105.268 98.9178 105.277 98.4077 105.289C97.3875 105.313 95.9297 105.351 94.1803 105.409C90.681 105.525 86.0171 105.718 81.3547 106.025C76.6887 106.332 72.0386 106.754 68.561 107.326C66.8181 107.612 65.3952 107.933 64.4178 108.286C63.9262 108.463 63.5788 108.638 63.3635 108.801C63.2575 108.881 63.1991 108.947 63.1693 108.993C63.1425 109.034 63.1426 109.053 63.1426 109.057L63.1426 109.057C63.1426 109.137 63.1766 109.262 63.3185 109.441C63.4609 109.619 63.6885 109.821 64.012 110.039C64.6589 110.476 65.6084 110.928 66.7845 111.38C69.1304 112.284 72.2744 113.153 75.4385 113.912C78.5982 114.671 81.7599 115.315 84.1329 115.769C85.3191 115.997 86.3074 116.176 86.999 116.299C87.3447 116.361 87.6162 116.408 87.8012 116.44C87.8936 116.456 87.9644 116.468 88.012 116.476L88.0658 116.485L88.0793 116.487L88.0826 116.488L88.0834 116.488C88.0836 116.488 88.0836 116.488 88.0011 116.981M112.058 116.981C111.568 117.083 111.568 117.083 111.568 117.083L111.569 117.085L111.57 117.091L111.575 117.116L111.595 117.214C111.613 117.301 111.64 117.431 111.674 117.599C111.744 117.937 111.844 118.432 111.972 119.063C112.226 120.324 112.586 122.128 113.006 124.297C113.846 128.635 114.93 134.432 115.902 140.271C116.874 146.112 117.733 151.983 118.127 156.474C118.324 158.723 118.402 160.605 118.325 161.958C118.286 162.638 118.208 163.157 118.1 163.513C117.993 163.862 117.892 163.938 117.88 163.947C117.879 163.948 117.879 163.948 117.88 163.948L117.877 163.949C117.845 163.961 117.74 163.982 117.501 163.862C117.267 163.744 116.972 163.523 116.622 163.184C115.924 162.508 115.09 161.451 114.167 160.114C112.326 157.446 110.189 153.751 108.153 149.998C106.119 146.248 104.194 142.454 102.777 139.597C102.068 138.169 101.487 136.975 101.083 136.138C100.881 135.72 100.724 135.391 100.616 135.167C100.563 135.055 100.522 134.969 100.494 134.911L100.463 134.846L100.456 134.829L100.454 134.825L100.453 134.824C100.453 134.824 100.453 134.824 100.001 135.038M100.001 135.038L100.453 134.824L100 133.867L99.5488 134.825L100.001 135.038ZM100.001 135.038C99.5488 134.825 99.5488 134.825 99.5487 134.825L99.5482 134.826L99.5463 134.83L99.5385 134.846L99.5075 134.912C99.4979 134.932 99.4867 134.956 99.4738 134.983C99.45 135.033 99.4207 135.095 99.386 135.168C99.2793 135.392 99.1222 135.721 98.921 136.139C98.5186 136.976 97.9396 138.169 97.2338 139.598C95.822 142.455 93.904 146.248 91.8772 149.998C89.8487 153.751 87.7186 157.447 85.8823 160.115C84.9618 161.452 84.1301 162.508 83.4339 163.184C83.0843 163.523 82.7908 163.745 82.5567 163.863C82.3187 163.982 82.2136 163.961 82.1816 163.949L82.1791 163.948C82.1802 163.948 82.18 163.948 82.1786 163.947C82.1666 163.938 82.0657 163.862 81.959 163.513C81.8503 163.157 81.7732 162.638 81.7342 161.958C81.6566 160.605 81.7352 158.723 81.9322 156.474C82.3258 151.983 83.1847 146.112 84.157 140.271C85.1289 134.432 86.2123 128.635 87.053 124.297C87.4732 122.128 87.8327 120.324 88.0871 119.063C88.2143 118.432 88.3152 117.937 88.3843 117.599C88.4189 117.431 88.4455 117.301 88.4634 117.214L88.4838 117.116L88.4889 117.091L88.4902 117.085L88.4905 117.083C88.4906 117.083 88.4906 117.083 88.0011 116.981M88.0011 116.981L88.4906 117.083L88.5963 116.574L88.0836 116.488L88.0011 116.981ZM100.001 82.6133C104.423 82.6133 107.992 86.1819 107.992 90.6038C107.992 95.0302 104.419 98.651 100.001 98.651C95.6379 98.651 92.0105 95.028 92.0105 90.6038C92.0105 86.184 95.6335 82.6133 100.001 82.6133Z" fill="#FBE2FA" stroke="#750771"/>
<path d="M243.729 146.741L238.54 157.119L205.422 124L238.54 90.8822L243.729 101.26L221.342 123.647L220.989 124L221.342 124.354L243.729 146.741ZM256.267 101.26L261.456 90.8822L294.574 124L261.456 157.119L256.267 146.741L278.653 124.354L279.007 124L278.653 123.647L256.267 101.26Z" fill="#FBE2FA" stroke="#750771"/>
</g>
<defs>
<clipPath id="clip0_3473_44367">
<rect width="350" height="250" fill="white"/>
</clipPath>
</defs>
</svg>
