<svg width="250" height="164" viewBox="0 0 250 164" fill="none" xmlns="http://www.w3.org/2000/svg">
<rect width="253.565" height="253.565" transform="translate(-2 -45)" fill="#F5FEF8"/>
<path fill-rule="evenodd" clip-rule="evenodd" d="M167.215 81.7833C167.215 58.4976 148.222 39.5225 124.914 39.5225C101.564 39.5225 82.6133 58.4976 82.6133 81.7833C82.6133 105.111 101.564 124.044 124.914 124.044C148.222 124.044 167.215 105.111 167.215 81.7833ZM115.524 104.478L101.1 65.8092C103.426 65.7247 106.049 65.4711 106.049 65.4711C108.164 65.2175 107.91 60.6956 105.795 60.7801C105.795 60.7801 99.6615 61.245 95.7699 61.245C95.0084 61.245 94.2047 61.245 93.3164 61.2027C100.042 50.8911 111.675 44.2139 124.915 44.2139C134.771 44.2139 143.739 47.8906 150.507 54.1029C147.631 53.638 143.527 55.7511 143.527 60.7801C143.527 63.5186 144.987 65.8682 146.628 68.5099L146.629 68.5107L146.63 68.5123L146.632 68.5164C146.864 68.8894 147.099 69.2683 147.334 69.6549C148.815 72.2328 149.661 75.4024 149.661 80.0511C149.661 86.348 143.739 101.182 143.739 101.182L130.922 65.8092C133.206 65.7247 134.39 65.0907 134.39 65.0907C136.505 64.8794 136.252 59.8081 134.137 59.9349C134.137 59.9349 128.045 60.442 124.069 60.442C120.389 60.442 114.213 59.9349 114.213 59.9349C112.098 59.8081 111.844 65.0062 113.959 65.0907L117.851 65.4288L123.181 79.8398L115.524 104.478ZM156.354 81.5376L156.262 81.7831C153.198 89.8431 150.156 97.9724 147.121 106.086L147.12 106.089L147.119 106.091L147.118 106.095L147.116 106.098C146.047 108.956 144.979 111.812 143.91 114.662C155.204 108.154 162.523 95.687 162.523 81.7831C162.523 75.275 161.042 69.2739 158.081 63.8223C159.354 73.5841 157.399 78.7681 156.354 81.5376ZM108.417 115.972C95.8111 109.886 87.3086 96.7011 87.3086 81.783C87.3086 76.2891 88.2815 71.3023 90.3542 66.6113C91.6186 70.0718 92.883 73.5341 94.1478 76.9975L94.1553 77.018L94.1555 77.0184C98.8967 90.0016 103.644 103 108.417 115.972ZM136.381 117.451L125.467 87.9532C123.456 93.8795 121.431 99.8058 119.399 105.75C118.011 109.809 116.621 113.877 115.23 117.958C118.276 118.888 121.576 119.353 124.917 119.353C128.936 119.353 132.743 118.677 136.381 117.451Z" fill="#D2FBE1"/>
<path d="M101.1 65.8092L101.086 65.4181L100.544 65.4378L100.733 65.9459L101.1 65.8092ZM115.524 104.478L115.158 104.615L115.558 105.688L115.898 104.594L115.524 104.478ZM106.049 65.4711L106.087 65.8607L106.096 65.8596L106.049 65.4711ZM105.795 60.7801L105.779 60.3889L105.766 60.3899L105.795 60.7801ZM93.3164 61.2027L92.9887 60.989L92.6155 61.5611L93.2978 61.5936L93.3164 61.2027ZM150.507 54.1029L150.445 54.4892L151.733 54.6975L150.772 53.8146L150.507 54.1029ZM146.628 68.5099L146.296 68.7164L146.297 68.7177L146.628 68.5099ZM146.629 68.5107L146.96 68.303L146.96 68.3028L146.629 68.5107ZM146.63 68.5123L146.962 68.3055L146.961 68.3046L146.63 68.5123ZM146.632 68.5164L146.965 68.3099L146.964 68.3097L146.632 68.5164ZM147.334 69.6549L147.674 69.46L147.669 69.4515L147.334 69.6549ZM143.739 101.182L143.371 101.315L143.721 102.281L144.102 101.327L143.739 101.182ZM130.922 65.8092L130.907 65.4181L130.371 65.438L130.554 65.9425L130.922 65.8092ZM134.39 65.0907L134.352 64.7014L134.274 64.7091L134.206 64.7457L134.39 65.0907ZM134.137 59.9349L134.113 59.5442L134.104 59.545L134.137 59.9349ZM114.213 59.9349L114.245 59.5448L114.236 59.5443L114.213 59.9349ZM113.959 65.0907L113.993 64.7009L113.984 64.7001L113.975 64.6997L113.959 65.0907ZM117.851 65.4288L118.218 65.2931L118.132 65.0605L117.885 65.039L117.851 65.4288ZM123.181 79.8398L123.554 79.9559L123.594 79.8288L123.548 79.704L123.181 79.8398ZM156.262 81.7831L156.628 81.9222L156.628 81.921L156.262 81.7831ZM156.354 81.5376L155.988 81.3996L155.988 81.3997L156.354 81.5376ZM147.121 106.086L147.487 106.223L147.487 106.223L147.121 106.086ZM147.12 106.089L146.753 105.951L146.753 105.952L147.12 106.089ZM147.119 106.091L146.752 105.954L146.752 105.954L147.119 106.091ZM147.116 106.098L147.483 106.235L147.483 106.235L147.116 106.098ZM143.91 114.662L143.544 114.525L143.161 115.545L144.106 115.001L143.91 114.662ZM158.081 63.8223L158.425 63.6355L157.693 63.8729L158.081 63.8223ZM108.417 115.972L108.247 116.324L109.118 116.745L108.784 115.837L108.417 115.972ZM90.3542 66.6113L90.7218 66.477L90.3887 65.5653L89.9963 66.4532L90.3542 66.6113ZM94.1478 76.9975L94.5154 76.8633L94.5154 76.8633L94.1478 76.9975ZM94.1553 77.018L93.7877 77.1522L93.7883 77.1536L94.1553 77.018ZM94.1555 77.0184L94.523 76.8842L94.5225 76.8827L94.1555 77.0184ZM125.467 87.9532L125.834 87.8175L125.451 86.7824L125.097 87.8275L125.467 87.9532ZM136.381 117.451L136.506 117.822L136.888 117.694L136.748 117.316L136.381 117.451ZM119.399 105.75L119.029 105.623L119.399 105.75ZM115.23 117.958L114.86 117.832L114.73 118.215L115.116 118.333L115.23 117.958ZM124.914 39.9138C148.006 39.9138 166.824 58.714 166.824 81.7833H167.606C167.606 58.2811 148.438 39.1312 124.914 39.1312V39.9138ZM83.0046 81.7833C83.0046 58.7138 101.78 39.9138 124.914 39.9138V39.1312C101.348 39.1312 82.222 58.2814 82.222 81.7833H83.0046ZM124.914 123.653C101.78 123.653 83.0046 104.895 83.0046 81.7833H82.222C82.222 105.328 101.348 124.435 124.914 124.435V123.653ZM166.824 81.7833C166.824 104.895 148.006 123.653 124.914 123.653V124.435C148.437 124.435 167.606 105.328 167.606 81.7833H166.824ZM100.733 65.9459L115.158 104.615L115.891 104.341L101.466 65.6724L100.733 65.9459ZM106.049 65.4711C106.011 65.0816 106.011 65.0816 106.011 65.0816C106.011 65.0816 106.011 65.0816 106.011 65.0816C106.011 65.0816 106.011 65.0816 106.011 65.0816C106.011 65.0817 106.01 65.0817 106.01 65.0818C106.008 65.0819 106.006 65.0821 106.004 65.0823C105.999 65.0828 105.992 65.0835 105.982 65.0844C105.962 65.0863 105.933 65.089 105.895 65.0925C105.82 65.0996 105.709 65.1098 105.568 65.1223C105.287 65.1473 104.888 65.1815 104.416 65.2183C103.472 65.2921 102.241 65.3761 101.086 65.4181L101.114 66.2002C102.285 66.1577 103.528 66.0727 104.477 65.9986C104.952 65.9614 105.354 65.927 105.637 65.9018C105.779 65.8892 105.891 65.8789 105.968 65.8718C106.006 65.8682 106.036 65.8654 106.056 65.8635C106.066 65.8626 106.074 65.8618 106.079 65.8613C106.081 65.8611 106.083 65.8609 106.085 65.8608C106.085 65.8607 106.086 65.8607 106.086 65.8606C106.086 65.8606 106.086 65.8606 106.086 65.8606C106.086 65.8606 106.087 65.8606 106.087 65.8606C106.087 65.8606 106.087 65.8606 106.049 65.4711ZM105.811 61.1711C106.176 61.1565 106.472 61.332 106.703 61.6646C106.94 62.0069 107.089 62.4971 107.118 63.0204C107.146 63.5431 107.053 64.0555 106.853 64.4374C106.656 64.8113 106.373 65.0381 106.002 65.0826L106.096 65.8596C106.782 65.7773 107.261 65.3437 107.545 64.8012C107.826 64.2665 107.934 63.6062 107.899 62.9773C107.864 62.3489 107.685 61.7087 107.346 61.219C107 60.7196 106.472 60.3615 105.78 60.3891L105.811 61.1711ZM95.7699 61.6363C97.7275 61.6363 100.243 61.5195 102.264 61.4032C103.276 61.345 104.166 61.2868 104.803 61.2432C105.121 61.2213 105.376 61.2031 105.552 61.1904C105.64 61.184 105.708 61.179 105.754 61.1756C105.777 61.1739 105.795 61.1726 105.807 61.1717C105.813 61.1712 105.817 61.1709 105.82 61.1707C105.822 61.1705 105.823 61.1705 105.824 61.1704C105.824 61.1704 105.824 61.1704 105.824 61.1703C105.824 61.1703 105.825 61.1703 105.825 61.1703C105.825 61.1703 105.825 61.1703 105.795 60.7801C105.766 60.3899 105.766 60.3899 105.766 60.3899C105.765 60.39 105.765 60.39 105.765 60.39C105.765 60.39 105.765 60.39 105.765 60.39C105.764 60.3901 105.763 60.3902 105.761 60.3903C105.758 60.3905 105.754 60.3908 105.748 60.3913C105.737 60.3921 105.719 60.3934 105.696 60.3951C105.651 60.3985 105.583 60.4035 105.496 60.4098C105.321 60.4225 105.067 60.4406 104.749 60.4624C104.114 60.5059 103.228 60.5639 102.219 60.6219C100.201 60.738 97.7039 60.8537 95.7699 60.8537V61.6363ZM93.2978 61.5936C94.1967 61.6364 95.0091 61.6363 95.7699 61.6363V60.8537C95.0077 60.8537 94.2128 60.8536 93.335 60.8119L93.2978 61.5936ZM124.915 43.8226C111.54 43.8226 99.7853 50.5688 92.9887 60.989L93.6442 61.4165C100.299 51.2134 111.81 44.6052 124.915 44.6052V43.8226ZM150.772 53.8146C143.932 47.5371 134.871 43.8226 124.915 43.8226V44.6052C134.672 44.6052 143.545 48.2441 150.242 54.3912L150.772 53.8146ZM143.919 60.7801C143.919 56.0196 147.778 54.0583 150.445 54.4892L150.569 53.7166C147.483 53.2178 143.136 55.4825 143.136 60.7801H143.919ZM146.96 68.3034C145.305 65.6388 143.919 63.3867 143.919 60.7801H143.136C143.136 63.6505 144.669 66.0975 146.296 68.7164L146.96 68.3034ZM146.96 68.3028L146.96 68.3021L146.297 68.7177L146.297 68.7185L146.96 68.3028ZM146.961 68.3046L146.96 68.303L146.297 68.7184L146.298 68.72L146.961 68.3046ZM146.964 68.3097L146.962 68.3055L146.297 68.719L146.3 68.7231L146.964 68.3097ZM147.669 69.4515C147.432 69.0631 147.196 68.6827 146.965 68.3099L146.3 68.7229C146.532 69.0961 146.766 69.4735 147 69.8584L147.669 69.4515ZM150.052 80.0511C150.052 75.3517 149.196 72.1109 147.674 69.46L146.995 69.8498C148.434 72.3548 149.27 75.4531 149.27 80.0511H150.052ZM143.739 101.182C144.102 101.327 144.102 101.327 144.102 101.326C144.102 101.326 144.103 101.326 144.103 101.326C144.103 101.325 144.103 101.325 144.103 101.324C144.104 101.322 144.105 101.319 144.107 101.315C144.11 101.308 144.114 101.297 144.12 101.283C144.131 101.254 144.148 101.212 144.17 101.157C144.213 101.046 144.277 100.883 144.358 100.673C144.521 100.254 144.753 99.6484 145.031 98.9021C145.587 97.4098 146.329 95.3539 147.072 93.1C147.814 90.8469 148.557 88.3918 149.116 86.1019C149.673 83.819 150.052 81.6739 150.052 80.0511H149.27C149.27 81.5767 148.909 83.6471 148.356 85.9165C147.804 88.179 147.067 90.6128 146.328 92.8552C145.59 95.0969 144.852 97.1429 144.298 98.6287C144.021 99.3715 143.79 99.9739 143.629 100.39C143.548 100.599 143.484 100.761 143.441 100.87C143.42 100.925 143.403 100.967 143.392 100.995C143.387 101.009 143.382 101.019 143.38 101.026C143.378 101.03 143.377 101.032 143.376 101.034C143.376 101.035 143.376 101.035 143.376 101.036C143.376 101.036 143.376 101.036 143.376 101.036C143.376 101.036 143.376 101.036 143.739 101.182ZM130.554 65.9425L143.371 101.315L144.107 101.048L131.29 65.6759L130.554 65.9425ZM134.39 65.0907C134.206 64.7457 134.206 64.7457 134.206 64.7456C134.206 64.7456 134.206 64.7455 134.206 64.7455C134.206 64.7454 134.206 64.7454 134.207 64.7453C134.207 64.7452 134.207 64.7452 134.207 64.7451C134.207 64.7451 134.207 64.7452 134.206 64.7454C134.205 64.7459 134.203 64.747 134.2 64.7486C134.194 64.7519 134.183 64.7573 134.167 64.7647C134.136 64.7794 134.087 64.8018 134.02 64.8296C133.886 64.8851 133.68 64.9622 133.403 65.0425C132.851 65.2031 132.015 65.3771 130.907 65.4181L130.936 66.2002C132.112 66.1567 133.011 65.9715 133.622 65.794C133.927 65.7053 134.16 65.6186 134.319 65.5527C134.399 65.5197 134.46 65.4919 134.503 65.4716C134.524 65.4615 134.541 65.4532 134.553 65.4472C134.559 65.4441 134.564 65.4416 134.568 65.4397C134.569 65.4387 134.571 65.4379 134.572 65.4373C134.573 65.4369 134.573 65.4366 134.574 65.4364C134.574 65.4363 134.574 65.4361 134.575 65.436C134.575 65.436 134.575 65.4359 134.575 65.4359C134.575 65.4358 134.575 65.4357 134.39 65.0907ZM134.16 60.3255C134.502 60.305 134.795 60.4827 135.034 60.8648C135.277 61.2537 135.43 61.8122 135.459 62.4054C135.488 62.998 135.393 63.5794 135.187 64.0094C134.984 64.4355 134.7 64.6666 134.352 64.7014L134.429 65.4801C135.138 65.4093 135.616 64.9272 135.894 64.347C136.169 63.7707 136.275 63.0525 136.241 62.3666C136.207 61.6815 136.031 60.9827 135.698 60.4499C135.36 59.9101 134.829 59.5014 134.113 59.5443L134.16 60.3255ZM124.069 60.8333C126.07 60.8333 128.597 60.7059 130.618 60.579C131.63 60.5155 132.518 60.452 133.152 60.4044C133.469 60.3805 133.723 60.3607 133.898 60.3468C133.986 60.3398 134.053 60.3344 134.099 60.3306C134.122 60.3288 134.139 60.3273 134.151 60.3264C134.157 60.3259 134.162 60.3255 134.165 60.3253C134.166 60.3251 134.167 60.325 134.168 60.325C134.168 60.3249 134.169 60.3249 134.169 60.3249C134.169 60.3249 134.169 60.3249 134.169 60.3249C134.169 60.3249 134.169 60.3249 134.137 59.9349C134.104 59.545 134.104 59.545 134.104 59.545C134.104 59.545 134.104 59.545 134.104 59.545C134.104 59.545 134.104 59.545 134.103 59.545C134.102 59.5451 134.101 59.5452 134.1 59.5453C134.097 59.5456 134.093 59.5459 134.087 59.5464C134.075 59.5473 134.058 59.5487 134.035 59.5506C133.99 59.5543 133.923 59.5597 133.836 59.5666C133.662 59.5805 133.409 59.6002 133.093 59.6239C132.461 59.6714 131.577 59.7347 130.569 59.7979C128.551 59.9246 126.044 60.0507 124.069 60.0507V60.8333ZM114.213 59.9349C114.181 60.3249 114.181 60.3249 114.181 60.3249C114.181 60.3249 114.181 60.3249 114.181 60.3249C114.181 60.3249 114.182 60.325 114.182 60.325C114.183 60.3251 114.184 60.3252 114.186 60.3253C114.189 60.3255 114.193 60.3259 114.199 60.3264C114.211 60.3274 114.229 60.3288 114.252 60.3307C114.298 60.3344 114.367 60.3398 114.455 60.3468C114.631 60.3607 114.888 60.3806 115.206 60.4044C115.844 60.452 116.732 60.5155 117.736 60.579C119.741 60.7058 122.216 60.8333 124.069 60.8333V60.0507C122.242 60.0507 119.789 59.9247 117.786 59.798C116.785 59.7347 115.9 59.6714 115.265 59.6239C114.947 59.6002 114.692 59.5804 114.516 59.5666C114.428 59.5597 114.361 59.5543 114.315 59.5506C114.292 59.5487 114.274 59.5473 114.263 59.5464C114.257 59.5459 114.252 59.5455 114.249 59.5453C114.248 59.5452 114.247 59.5451 114.246 59.545C114.246 59.545 114.245 59.545 114.245 59.5449C114.245 59.5449 114.245 59.5449 114.245 59.5449C114.245 59.5449 114.245 59.5449 114.213 59.9349ZM113.975 64.6997C113.638 64.6863 113.363 64.4781 113.161 64.0612C112.957 63.6389 112.861 63.0547 112.891 62.4527C112.92 61.8508 113.073 61.2792 113.317 60.8794C113.559 60.4851 113.853 60.3053 114.19 60.3255L114.236 59.5443C113.516 59.5011 112.985 59.9235 112.65 60.4709C112.318 61.0127 112.143 61.7221 112.109 62.4144C112.075 63.1067 112.18 63.83 112.457 64.4021C112.736 64.9797 113.223 65.4529 113.944 65.4817L113.975 64.6997ZM117.885 65.039L113.993 64.7009L113.925 65.4806L117.817 65.8187L117.885 65.039ZM123.548 79.704L118.218 65.2931L117.484 65.5646L122.814 79.9755L123.548 79.704ZM115.898 104.594L123.554 79.9559L122.807 79.7237L115.151 104.362L115.898 104.594ZM156.628 81.921L156.721 81.6755L155.988 81.3997L155.896 81.6452L156.628 81.921ZM147.487 106.223C150.523 98.1093 153.564 89.981 156.628 81.9222L155.896 81.6441C152.831 89.7052 149.79 97.8354 146.754 105.948L147.487 106.223ZM147.486 106.227L147.487 106.223L146.755 105.948L146.753 105.951L147.486 106.227ZM147.485 106.229L147.486 106.227L146.753 105.952L146.752 105.954L147.485 106.229ZM147.484 106.231L147.485 106.228L146.752 105.954L146.751 105.958L147.484 106.231ZM147.483 106.235L147.484 106.231L146.751 105.958L146.75 105.961L147.483 106.235ZM144.277 114.799C145.345 111.949 146.414 109.093 147.483 106.235L146.75 105.961C145.681 108.819 144.612 111.675 143.544 114.525L144.277 114.799ZM162.131 81.7831C162.131 95.5498 154.885 107.886 143.715 114.323L144.106 115.001C155.523 108.422 162.914 95.8241 162.914 81.7831H162.131ZM157.737 64.009C160.665 69.4003 162.131 75.3367 162.131 81.7831H162.914C162.914 75.2133 161.419 69.1475 158.425 63.6355L157.737 64.009ZM156.721 81.6757C157.779 78.87 159.753 73.6186 158.469 63.7717L157.693 63.8729C158.955 73.5497 157.019 78.6661 155.988 81.3996L156.721 81.6757ZM86.9173 81.783C86.9173 96.8501 95.5046 110.173 108.247 116.324L108.587 115.62C96.1175 109.6 87.6999 96.5521 87.6999 81.783H86.9173ZM89.9963 66.4532C87.8992 71.1993 86.9173 76.2408 86.9173 81.783H87.6999C87.6999 76.3374 88.6638 71.4053 90.7122 66.7695L89.9963 66.4532ZM94.5154 76.8633C93.2506 73.3999 91.9862 69.9375 90.7218 66.477L89.9867 66.7456C91.2511 70.206 92.5155 73.6683 93.7803 77.1317L94.5154 76.8633ZM94.5229 76.8838L94.5154 76.8633L93.7802 77.1317L93.7877 77.1522L94.5229 76.8838ZM94.5225 76.8827L94.5223 76.8823L93.7883 77.1536L93.7884 77.1541L94.5225 76.8827ZM108.784 115.837C104.011 102.865 99.2643 89.8674 94.523 76.8842L93.7879 77.1526C98.5291 90.1357 103.276 103.135 108.049 116.107L108.784 115.837ZM125.1 88.089L136.014 117.587L136.748 117.316L125.834 87.8175L125.1 88.089ZM119.769 105.876C121.801 99.9324 123.827 94.0057 125.838 88.079L125.097 87.8275C123.086 93.7533 121.06 99.6792 119.029 105.623L119.769 105.876ZM115.601 118.085C116.991 114.003 118.382 109.936 119.769 105.876L119.029 105.623C117.641 109.683 116.251 113.75 114.86 117.832L115.601 118.085ZM124.917 118.962C121.611 118.962 118.35 118.502 115.345 117.584L115.116 118.333C118.202 119.275 121.54 119.744 124.917 119.744V118.962ZM136.256 117.081C132.656 118.293 128.891 118.962 124.917 118.962V119.744C128.981 119.744 132.83 119.06 136.506 117.822L136.256 117.081Z" fill="#035D24"/>
<rect x="40.653" y="-2.34698" width="168.261" height="168.261" rx="84.1304" stroke="#035D24" stroke-width="0.782609" stroke-dasharray="2.35 2.35"/>
<rect x="-1.6087" y="-44.6087" width="252.783" height="252.783" rx="126.391" stroke="#035D24" stroke-width="0.782609" stroke-dasharray="2.35 2.35"/>
<path d="M205.278 102.79L197.005 111.078V72.5123L223.061 98.6163H213.799H213.154L213.452 99.1883C213.953 100.151 217.138 106.582 217.665 107.85C217.738 108.026 217.794 108.388 217.781 108.887C217.768 109.372 217.691 109.942 217.536 110.509C217.219 111.665 216.609 112.694 215.667 113.069C214.638 113.478 213.442 113.485 212.477 113.377C211.999 113.323 211.587 113.243 211.297 113.176C211.176 113.148 211.076 113.123 211.001 113.103L205.905 102.891L205.662 102.405L205.278 102.79Z" fill="#D2FBE1" stroke="#035D24" stroke-width="0.782609"/>
</svg>
