<svg width="250" height="164" viewBox="0 0 250 164" fill="none" xmlns="http://www.w3.org/2000/svg">
<g clip-path="url(#clip0_3340_4276)">
<mask id="path-1-inside-1_3340_4276" fill="white">
<path d="M-15 -14H265V177H-15V-14Z"/>
</mask>
<path d="M-15 -14H265V177H-15V-14Z" fill="#FDF5FE"/>
<path d="M204.742 -65.2607V147.609C204.742 160.143 214.903 170.304 227.438 170.304H245.047" stroke="#750771" stroke-width="0.782609" stroke-dasharray="2.35 2.35"/>
<path d="M289.266 191.826V108.086C289.266 95.552 279.104 85.3908 266.57 85.3908H58.396C45.8616 85.3908 35.7004 95.552 35.7004 108.086V236.043" stroke="#750771" stroke-width="0.782609" stroke-dasharray="2.35 2.35"/>
<path d="M204.742 0.869312H142.916C130.382 0.869312 120.22 11.0305 120.22 23.565V146.826C120.22 159.36 110.059 169.521 97.5248 169.521L9.09002 169.521" stroke="#750771" stroke-width="0.782609" stroke-dasharray="2.35 2.35"/>
<path d="M83.0422 39.7793L82.9775 39.3934L82.5764 39.4607L82.6591 39.8589L83.0422 39.7793ZM83.0422 39.7793L82.9775 39.3934L82.9779 39.3934L82.9792 39.3931L82.9848 39.3922L83.0072 39.3884L83.0955 39.3733C83.173 39.3599 83.2869 39.34 83.4321 39.3141C83.7224 39.2624 84.1374 39.1867 84.6356 39.0911C85.6325 38.8997 86.9598 38.6287 88.2856 38.3098C89.6148 37.9902 90.9283 37.6257 91.9039 37.2492C92.3942 37.06 92.7788 36.8754 93.0342 36.7026C93.1619 36.6161 93.2414 36.5431 93.2858 36.4874C93.29 36.482 93.2938 36.4769 93.2972 36.4723C93.227 36.4198 93.1005 36.3539 92.902 36.2822C92.5058 36.139 91.9189 36.006 91.1869 35.8857C89.7294 35.6461 87.7755 35.4688 85.8092 35.3392C83.8458 35.2098 81.8812 35.1286 80.4066 35.0799C79.6696 35.0555 79.0554 35.0392 78.6257 35.029C78.4108 35.0239 78.2421 35.0204 78.1271 35.0181L77.9961 35.0155L77.9626 35.015L77.958 35.0149L77.9534 35.015L77.92 35.0155L77.7889 35.0181C77.674 35.0204 77.5052 35.0239 77.2904 35.029C76.8606 35.0392 76.2465 35.0555 75.5094 35.0799C74.0349 35.1286 72.0702 35.2098 70.1068 35.3392C68.1405 35.4688 66.1867 35.6461 64.7291 35.8857C63.9972 36.006 63.4103 36.139 63.014 36.2822C62.8157 36.3539 62.6892 36.4197 62.619 36.4722C62.6223 36.4768 62.626 36.4817 62.6303 36.487C62.6747 36.5428 62.7545 36.6159 62.8826 36.7023C63.1386 36.8752 63.5242 37.0599 64.0156 37.2491C64.9935 37.6257 66.31 37.9901 67.6422 38.3098C68.971 38.6286 70.3013 38.8996 71.3004 39.0911C71.7997 39.1867 72.2157 39.2624 72.5067 39.3141C72.6521 39.34 72.7663 39.3598 72.844 39.3732L72.9325 39.3884L72.955 39.3922L72.9605 39.3931L72.9619 39.3933L72.9622 39.3934L72.8977 39.7793M83.0422 39.7793C82.6591 39.8589 82.6591 39.8589 82.6591 39.8591L82.6593 39.8597L82.6598 39.8623L82.662 39.8727L82.6705 39.9141L82.7038 40.0762C82.7329 40.2183 82.7754 40.4269 82.829 40.6927C82.9362 41.2243 83.0878 41.9845 83.2649 42.8986C83.6192 44.7272 84.0758 47.1702 84.4852 49.6301C84.8951 52.0922 85.2563 54.5626 85.4217 56.4491C85.5046 57.3948 85.5367 58.1783 85.5048 58.7357C85.4887 59.0167 85.4572 59.2188 85.4176 59.3487C85.4138 59.3609 85.4103 59.3718 85.4069 59.3815C85.3319 59.3414 85.227 59.2633 85.0925 59.1331C84.8112 58.8607 84.4676 58.4267 84.0803 57.8657C83.3094 56.749 82.4119 55.1975 81.5542 53.6161C80.698 52.0375 79.8872 50.4398 79.2902 49.2361C78.9918 48.6344 78.747 48.1316 78.5769 47.7794C78.4918 47.6032 78.4254 47.4648 78.3803 47.3704L78.329 47.2629L78.316 47.2354L78.3127 47.2285L78.3119 47.2268L78.3118 47.2264C78.3117 47.2264 78.3117 47.2263 77.958 47.3937M77.958 47.3937L78.3117 47.2263L77.9573 46.4776L77.6041 47.2269L77.958 47.3937ZM77.958 47.3937C77.6041 47.2269 77.6041 47.2269 77.604 47.227L77.6038 47.2274L77.603 47.2291L77.5998 47.2359L77.5868 47.2634L77.5357 47.371C77.4908 47.4653 77.4247 47.6038 77.3399 47.7799C77.1705 48.1321 76.9266 48.6349 76.6293 49.2366C76.0345 50.4404 75.2267 52.038 74.3735 53.6166C73.5188 55.198 72.6242 56.7494 71.8555 57.8662C71.4694 58.4271 71.1267 58.861 70.846 59.1334C70.7121 59.2633 70.6077 59.3413 70.533 59.3814C70.5296 59.3717 70.526 59.3608 70.5223 59.3487C70.4827 59.2188 70.4512 59.0167 70.4351 58.7357C70.4032 58.1783 70.4353 57.3948 70.5182 56.4491C70.6836 54.5626 71.0448 52.0922 71.4547 49.6301C71.8641 47.1702 72.3207 44.7272 72.675 42.8986C72.8521 41.9845 73.0037 41.2243 73.1109 40.6927C73.1645 40.4269 73.207 40.2183 73.2361 40.0762L73.2694 39.9141L73.2779 39.8727L73.2801 39.8623L73.2806 39.8597L73.2808 39.8591C73.2808 39.8589 73.2808 39.8589 72.8977 39.7793M72.8977 39.7793L73.2808 39.8589L73.3635 39.4606L72.9623 39.3934L72.8977 39.7793ZM93.3395 36.5101C93.3394 36.5101 93.3386 36.5091 93.3374 36.5073C93.339 36.5091 93.3396 36.5101 93.3395 36.5101ZM62.5765 36.5101C62.5764 36.5101 62.577 36.5091 62.5787 36.5072C62.5774 36.5091 62.5766 36.5101 62.5765 36.5101ZM70.465 59.4094C70.4651 59.4093 70.4657 59.4092 70.4671 59.4091L70.465 59.4094ZM85.4748 59.4094C85.4748 59.4094 85.4741 59.4094 85.4727 59.4091L85.4748 59.4094ZM77.958 25.467C79.7231 25.467 81.1471 26.8911 81.1471 28.6561C81.1471 30.4246 79.7197 31.8691 77.958 31.8691C76.2185 31.8691 74.7689 30.4229 74.7689 28.6561C74.7689 26.8928 76.2151 25.467 77.958 25.467Z" fill="#FBE2FA" stroke="#750771" stroke-width="0.782609"/>
<path d="M166.776 29.601L166.776 29.6017C167.098 31.0232 166.794 32.9956 165.99 34.6164C165.18 36.2474 163.94 37.3828 162.479 37.3828C161.005 37.3828 159.76 36.2459 158.948 34.6159C158.141 32.996 157.837 31.0245 158.158 29.6032C158.668 27.4353 160.543 26.0158 162.479 26.0158C164.393 26.0158 166.29 27.4372 166.776 29.601ZM148.3 31.7518L148.3 31.7508C148.714 29.9414 150.303 28.7369 151.905 28.7369C153.506 28.7369 155.096 29.9414 155.51 31.7508L155.51 31.7518C155.783 32.9327 155.528 34.5877 154.846 35.9521C154.159 37.3262 153.117 38.266 151.905 38.266C150.693 38.266 149.651 37.3262 148.964 35.9521C148.282 34.5877 148.027 32.9327 148.3 31.7518ZM169.448 31.7518L169.449 31.7508C169.863 29.94 171.453 28.7369 173.03 28.7369C174.631 28.7369 176.22 29.9414 176.634 31.7508L176.635 31.7518C176.908 32.9327 176.653 34.5877 175.971 35.9521C175.284 37.3262 174.241 38.266 173.03 38.266C171.831 38.266 170.794 37.3279 170.11 35.9527C169.43 34.5879 169.175 32.9328 169.448 31.7518ZM170.269 48.5655L170.269 48.5655L170.267 48.5733L167.285 58.8321C167.049 59.5633 166.429 60.2156 165.554 60.6912C164.68 61.1656 163.587 61.4433 162.479 61.4433C161.346 61.4433 160.248 61.1651 159.375 60.6912C158.5 60.2162 157.885 59.5641 157.65 58.8317L154.644 48.5725L154.644 48.5725L154.642 48.5669C153.751 45.6869 154.186 43.4422 155.542 41.9158C156.912 40.3742 159.296 39.4783 162.479 39.4783C165.651 39.4783 168.028 40.3741 169.392 41.9152C170.742 43.4411 171.171 45.6854 170.269 48.5655ZM152.796 40.4862L152.789 40.4944L152.783 40.503C151.547 42.1928 150.394 45.0879 151.721 49.4159C151.721 49.4166 151.722 49.4172 151.722 49.4179L154.304 58.1567C153.604 58.5047 152.758 58.6983 151.905 58.6983C150.95 58.6983 150.031 58.4675 149.302 58.0715C148.573 57.6752 148.063 57.1308 147.863 56.5157L145.311 47.8086L145.311 47.8086L145.309 47.8035C144.561 45.3766 144.931 43.5022 146.063 42.2325C147.208 40.9475 149.21 40.1943 151.905 40.1943C152.273 40.1943 152.64 40.2104 152.997 40.2423C152.927 40.3255 152.86 40.4076 152.796 40.4862ZM179.626 47.8019L179.626 47.8019L179.624 47.8086L177.071 56.5158C176.871 57.1309 176.362 57.6752 175.632 58.0715C174.904 58.4675 173.984 58.6983 173.03 58.6983C172.177 58.6983 171.33 58.5047 170.63 58.1566L173.189 49.4664C173.189 49.4655 173.189 49.4647 173.189 49.4638C174.54 45.0911 173.39 42.1947 172.127 40.5018C172.066 40.4171 171.999 40.3299 171.929 40.2424C172.282 40.2104 172.647 40.1943 173.03 40.1943C175.725 40.1943 177.733 40.9476 178.881 42.2329C180.015 43.5022 180.385 45.3759 179.626 47.8019Z" fill="#FBE2FA" stroke="#750771" stroke-width="0.782609"/>
<path d="M75.0929 136.886L73.0749 140.922L59.4137 127.261L73.0749 113.6L75.0929 117.636L65.7445 126.984L65.4678 127.261L65.7445 127.537L75.0929 136.886ZM80.8191 117.636L82.8371 113.6L96.4983 127.261L82.8371 140.922L80.8191 136.886L90.1675 127.537L90.4442 127.261L90.1675 126.984L80.8191 117.636Z" fill="#FBE2FA" stroke="#750771" stroke-width="0.782609"/>
<path d="M150.032 125.266H156.123V134.031H144.58C142.17 134.031 140.197 132.058 140.197 129.648V112.939C140.197 110.53 142.17 108.557 144.58 108.557H161.288C163.698 108.557 165.671 110.53 165.671 112.939V117.322H162.458C161.098 117.322 159.755 117.864 158.834 118.66L156.886 112.816L156.796 112.548H156.514H149.664H149.384L149.293 112.813L143.589 129.522L143.412 130.039H143.959H147.993H148.265L148.36 129.784L150.032 125.266ZM180.981 132.426H181.372V132.035V129.457V129.066H180.981H173.805V124.277V123.886H173.414H170.645H170.254V124.277V129.066H163.078H162.687V129.457V132.035V132.426H163.078H165.797C166.113 134.303 167.062 136.408 168.526 138.132C167.654 138.468 166.746 138.757 165.929 138.973C164.94 139.234 164.122 139.378 163.675 139.378H163.433L163.325 139.594C163.287 139.67 163.284 139.74 163.284 139.751L163.284 139.752C163.283 139.774 163.283 139.793 163.284 139.803C163.285 139.824 163.288 139.843 163.29 139.857C163.293 139.885 163.299 139.919 163.306 139.955C163.319 140.027 163.339 140.128 163.363 140.246L163.366 140.263C163.413 140.499 163.476 140.813 163.538 141.159C163.667 141.882 163.784 142.701 163.762 143.238L163.745 143.645H164.153C165.22 143.645 166.587 143.331 167.992 142.832C169.332 142.357 170.733 141.704 171.984 140.964C173.257 141.704 174.682 142.357 176.045 142.833C177.474 143.331 178.865 143.645 179.954 143.645H180.362L180.345 143.238C180.323 142.7 180.435 141.878 180.561 141.158C180.622 140.803 180.686 140.483 180.734 140.247C180.752 140.159 180.768 140.083 180.78 140.021C180.785 140 180.789 139.981 180.792 139.964C180.799 139.929 180.805 139.9 180.81 139.878C180.812 139.868 180.814 139.857 180.816 139.847C180.817 139.842 180.818 139.834 180.819 139.826L180.819 139.826C180.819 139.824 180.823 139.799 180.823 139.769V139.378H180.432C179.973 139.378 179.125 139.228 178.102 138.961C177.253 138.739 176.309 138.442 175.409 138.102C176.831 136.38 177.757 134.28 178.071 132.426H180.981ZM180.045 139.713L180.044 139.715C180.045 139.707 180.046 139.705 180.045 139.713ZM173.971 132.426C173.575 133.971 172.896 135.259 171.98 136.19C171.042 135.258 170.346 133.969 169.964 132.426H173.971ZM152.914 116.694L154.794 122.096H151.07L152.914 116.694ZM163.675 120.492H180.384C182.793 120.492 184.767 122.465 184.767 124.874V141.583C184.767 143.992 182.793 145.966 180.384 145.966H163.675C161.266 145.966 159.293 143.992 159.293 141.583V124.874C159.293 122.465 161.266 120.492 163.675 120.492Z" fill="#FBE2FA" stroke="#750771" stroke-width="0.782609"/>
</g>
<path d="M-14 177V-14H-16V177H-14Z" fill="#D9D9D9" mask="url(#path-1-inside-1_3340_4276)"/>
<defs>
<clipPath id="clip0_3340_4276">
<path d="M-15 -14H265V177H-15V-14Z" fill="white"/>
</clipPath>
</defs>
</svg>
