<svg width="267" height="210" viewBox="0 0 267 210" fill="none" xmlns="http://www.w3.org/2000/svg">
<g clip-path="url(#clip0_3199_22256)">
<mask id="path-1-inside-1_3199_22256" fill="white">
<path d="M0 -10H301V220H0V-10Z"/>
</mask>
<path d="M0 -10H301V220H0V-10Z" fill="#F5FEF8"/>
<path fill-rule="evenodd" clip-rule="evenodd" d="M226.218 105C226.218 75.246 201.949 51 172.167 51C142.331 51 118.116 75.246 118.116 105C118.116 134.808 142.331 159 172.167 159C201.949 159 226.218 134.808 226.218 105ZM160.166 133.998L141.735 84.5881C144.707 84.4801 148.059 84.1561 148.059 84.1561C150.761 83.8321 150.437 78.0541 147.734 78.1621C147.734 78.1621 139.897 78.7561 134.924 78.7561C133.951 78.7561 132.924 78.7561 131.789 78.7021C140.383 65.5261 155.247 56.9941 172.165 56.9941C184.759 56.9941 196.218 61.6921 204.866 69.6301C201.191 69.0361 195.948 71.7361 195.948 78.1621C195.948 81.6613 197.813 84.6635 199.91 88.0391L199.91 88.0394C200.208 88.5186 200.51 89.0054 200.812 89.5021C202.704 92.7961 203.785 96.8461 203.785 102.786C203.785 110.832 196.218 129.786 196.218 129.786L179.841 84.5881C182.759 84.4801 184.273 83.6701 184.273 83.6701C186.975 83.4001 186.651 76.9201 183.948 77.0821C183.948 77.0821 176.165 77.7301 171.084 77.7301C166.382 77.7301 158.49 77.0821 158.49 77.0821C155.788 76.9201 155.464 83.5621 158.166 83.6701L163.139 84.1021L169.949 102.516L160.166 133.998ZM212.269 104.857C212.251 104.905 212.233 104.953 212.216 105C208.299 115.301 204.412 125.692 200.532 136.061L200.525 136.082L200.508 136.125C199.149 139.758 197.791 143.388 196.433 147.012C210.864 138.696 220.215 122.766 220.215 105C220.215 96.6838 218.323 89.0158 214.54 82.0498C216.166 94.5233 213.668 101.147 212.334 104.686C212.312 104.744 212.29 104.801 212.269 104.857ZM151.086 148.686C134.978 140.91 124.114 124.062 124.114 105C124.114 97.9803 125.357 91.6083 128.006 85.6143C129.624 90.0435 131.242 94.4751 132.861 98.9082L132.863 98.9124L132.863 98.9133C138.921 115.503 144.987 132.111 151.086 148.686ZM186.821 150.576L172.876 112.884C170.307 120.456 167.718 128.029 165.122 135.624C163.349 140.811 161.573 146.008 159.796 151.224C163.688 152.412 167.904 153.006 172.174 153.006C177.308 153.006 182.173 152.142 186.821 150.576Z" fill="#D2FBE1"/>
<path d="M141.735 84.5881L141.716 84.0885L141.024 84.1136L141.266 84.7629L141.735 84.5881ZM160.166 133.998L159.698 134.173L160.209 135.544L160.644 134.147L160.166 133.998ZM148.059 84.1561L148.107 84.654L148.118 84.6526L148.059 84.1561ZM147.734 78.1621L147.714 77.6625L147.705 77.6629L147.697 77.6636L147.734 78.1621ZM131.789 78.7021L131.37 78.429L130.894 79.1601L131.766 79.2016L131.789 78.7021ZM204.866 69.6301L204.786 70.1237L206.433 70.3899L205.204 69.2618L204.866 69.6301ZM199.91 88.0391L200.34 87.7841L200.334 87.7752L199.91 88.0391ZM199.91 88.0394L199.48 88.2943L199.485 88.3032L199.91 88.0394ZM200.812 89.5021L201.246 89.253L201.239 89.2422L200.812 89.5021ZM196.218 129.786L195.748 129.956L196.195 131.191L196.682 129.972L196.218 129.786ZM179.841 84.5881L179.822 84.0885L179.137 84.1138L179.371 84.7585L179.841 84.5881ZM184.273 83.6701L184.223 83.1726L184.124 83.1825L184.037 83.2293L184.273 83.6701ZM183.948 77.0821L183.919 76.5829L183.907 76.5839L183.948 77.0821ZM158.49 77.0821L158.531 76.5837L158.52 76.583L158.49 77.0821ZM158.166 83.6701L158.209 83.172L158.198 83.171L158.186 83.1705L158.166 83.6701ZM163.139 84.1021L163.608 83.9287L163.498 83.6314L163.182 83.604L163.139 84.1021ZM169.949 102.516L170.427 102.665L170.477 102.502L170.418 102.343L169.949 102.516ZM212.216 105L212.683 105.177L212.684 105.176L212.216 105ZM212.269 104.857L211.801 104.681L211.801 104.681L212.269 104.857ZM200.532 136.061L200.064 135.886L200.064 135.886L200.532 136.061ZM200.525 136.082L200.993 136.257L200.993 136.257L200.525 136.082ZM200.508 136.125L200.04 135.949L200.04 135.949L200.508 136.125ZM196.433 147.012L195.964 146.836L195.476 148.14L196.682 147.445L196.433 147.012ZM214.54 82.0498L214.979 81.8112L214.044 82.1144L214.54 82.0498ZM212.334 104.686L211.866 104.51V104.51L212.334 104.686ZM151.086 148.686L150.868 149.137L151.982 149.674L151.555 148.514L151.086 148.686ZM128.006 85.6143L128.475 85.4427L128.05 84.2776L127.548 85.4122L128.006 85.6143ZM132.861 98.9082L133.331 98.7367L133.331 98.7367L132.861 98.9082ZM132.863 98.9124L133.333 98.7411L133.333 98.7409L132.863 98.9124ZM132.863 98.9133L132.394 99.0847L132.394 99.0849L132.863 98.9133ZM172.876 112.884L173.345 112.71L172.856 111.388L172.403 112.723L172.876 112.884ZM186.821 150.576L186.981 151.05L187.469 150.885L187.29 150.402L186.821 150.576ZM165.122 135.624L165.595 135.785L165.122 135.624ZM159.796 151.224L159.323 151.063L159.156 151.551L159.65 151.702L159.796 151.224ZM172.167 51.5C201.674 51.5 225.718 75.5226 225.718 105H226.718C226.718 74.9694 202.225 50.5 172.167 50.5V51.5ZM118.616 105C118.616 75.5223 142.607 51.5 172.167 51.5V50.5C142.055 50.5 117.616 74.9697 117.616 105H118.616ZM172.167 158.5C142.607 158.5 118.616 134.531 118.616 105H117.616C117.616 135.085 142.055 159.5 172.167 159.5V158.5ZM225.718 105C225.718 134.531 201.674 158.5 172.167 158.5V159.5C202.225 159.5 226.718 135.085 226.718 105H225.718ZM141.266 84.7629L159.698 134.173L160.634 133.823L142.203 84.4134L141.266 84.7629ZM148.059 84.1561C148.01 83.6585 148.01 83.6585 148.01 83.6585C148.01 83.6585 148.01 83.6585 148.01 83.6585C148.01 83.6585 148.01 83.6585 148.01 83.6585C148.01 83.6586 148.009 83.6586 148.008 83.6587C148.007 83.6588 148.004 83.6591 148.001 83.6594C147.995 83.66 147.985 83.6609 147.973 83.662C147.948 83.6644 147.911 83.6679 147.862 83.6724C147.766 83.6814 147.624 83.6945 147.444 83.7104C147.085 83.7424 146.575 83.7861 145.972 83.8332C144.766 83.9274 143.193 84.0348 141.716 84.0885L141.753 85.0878C143.249 85.0335 144.838 84.9249 146.05 84.8301C146.657 84.7827 147.171 84.7387 147.533 84.7065C147.714 84.6904 147.857 84.6773 147.955 84.6681C148.004 84.6636 148.042 84.66 148.068 84.6576C148.08 84.6564 148.09 84.6554 148.097 84.6548C148.1 84.6545 148.102 84.6542 148.104 84.6541C148.105 84.654 148.106 84.6539 148.106 84.6539C148.106 84.6539 148.106 84.6539 148.107 84.6538C148.107 84.6538 148.107 84.6538 148.107 84.6538C148.107 84.6538 148.107 84.6538 148.059 84.1561ZM147.754 78.6617C148.221 78.6431 148.6 78.8673 148.894 79.2923C149.197 79.7296 149.387 80.3561 149.424 81.0246C149.461 81.6925 149.342 82.3474 149.085 82.8353C148.835 83.3131 148.473 83.6029 147.999 83.6597L148.118 84.6526C148.996 84.5474 149.607 83.9934 149.971 83.3001C150.329 82.6169 150.467 81.7732 150.423 80.9696C150.378 80.1667 150.15 79.3487 149.716 78.7229C149.274 78.0848 148.599 77.6272 147.714 77.6625L147.754 78.6617ZM134.924 79.2561C137.426 79.2561 140.64 79.1069 143.223 78.9583C144.515 78.8839 145.652 78.8096 146.466 78.7538C146.873 78.7259 147.199 78.7026 147.424 78.6864C147.536 78.6782 147.623 78.6718 147.682 78.6674C147.712 78.6653 147.734 78.6636 147.749 78.6624C147.757 78.6619 147.762 78.6614 147.766 78.6612C147.768 78.661 147.77 78.6609 147.771 78.6608C147.771 78.6608 147.771 78.6608 147.772 78.6607C147.772 78.6607 147.772 78.6607 147.772 78.6607C147.772 78.6607 147.772 78.6607 147.734 78.1621C147.697 77.6636 147.697 77.6636 147.696 77.6636C147.696 77.6636 147.696 77.6636 147.696 77.6636C147.696 77.6636 147.696 77.6636 147.695 77.6637C147.694 77.6637 147.693 77.6638 147.691 77.664C147.687 77.6643 147.682 77.6647 147.674 77.6652C147.659 77.6664 147.637 77.668 147.608 77.6702C147.55 77.6745 147.463 77.6809 147.352 77.689C147.128 77.7052 146.803 77.7283 146.398 77.7561C145.587 77.8117 144.454 77.8858 143.165 77.96C140.586 78.1084 137.395 78.2561 134.924 78.2561V79.2561ZM131.766 79.2016C132.914 79.2562 133.952 79.2561 134.924 79.2561V78.2561C133.95 78.2561 132.935 78.2561 131.813 78.2027L131.766 79.2016ZM172.165 56.4941C155.075 56.4941 140.055 65.1143 131.37 78.429L132.208 78.9753C140.712 65.938 155.42 57.4941 172.165 57.4941V56.4941ZM205.204 69.2618C196.465 61.2405 184.886 56.4941 172.165 56.4941V57.4941C184.632 57.4941 195.971 62.1438 204.528 69.9985L205.204 69.2618ZM196.448 78.1621C196.448 72.0793 201.379 69.5731 204.786 70.1237L204.946 69.1365C201.002 68.4992 195.448 71.393 195.448 78.1621H196.448ZM200.334 87.7752C198.219 84.3704 196.448 81.4927 196.448 78.1621H195.448C195.448 81.8298 197.406 84.9566 199.485 88.3029L200.334 87.7752ZM200.34 87.7845L200.34 87.7842L199.48 88.294L199.48 88.2943L200.34 87.7845ZM201.239 89.2422C200.936 88.7431 200.632 88.2545 200.335 87.7755L199.485 88.3032C199.783 88.7827 200.084 89.2676 200.385 89.7621L201.239 89.2422ZM204.285 102.786C204.285 96.7813 203.191 92.6403 201.246 89.2531L200.379 89.7512C202.217 92.952 203.285 96.911 203.285 102.786H204.285ZM196.218 129.786C196.682 129.972 196.682 129.971 196.683 129.971C196.683 129.971 196.683 129.971 196.683 129.971C196.683 129.97 196.683 129.969 196.684 129.968C196.685 129.965 196.686 129.962 196.688 129.957C196.692 129.948 196.697 129.934 196.705 129.916C196.719 129.879 196.74 129.825 196.768 129.754C196.824 129.613 196.906 129.405 197.009 129.137C197.217 128.601 197.513 127.827 197.869 126.874C198.58 124.967 199.528 122.34 200.477 119.46C201.425 116.581 202.375 113.444 203.089 110.518C203.8 107.601 204.285 104.86 204.285 102.786H203.285C203.285 104.736 202.824 107.381 202.117 110.281C201.412 113.172 200.47 116.282 199.527 119.147C198.583 122.011 197.64 124.626 196.932 126.524C196.578 127.473 196.283 128.243 196.077 128.775C195.974 129.041 195.893 129.248 195.838 129.388C195.81 129.458 195.789 129.511 195.775 129.547C195.768 129.565 195.763 129.579 195.759 129.588C195.757 129.592 195.756 129.595 195.755 129.598C195.755 129.599 195.754 129.599 195.754 129.6C195.754 129.6 195.754 129.6 195.754 129.601C195.754 129.601 195.754 129.601 196.218 129.786ZM179.371 84.7585L195.748 129.956L196.688 129.616L180.311 84.4178L179.371 84.7585ZM184.273 83.6701C184.037 83.2293 184.037 83.2292 184.037 83.2291C184.037 83.2291 184.037 83.229 184.037 83.229C184.038 83.2289 184.038 83.2288 184.038 83.2288C184.038 83.2286 184.038 83.2286 184.038 83.2285C184.038 83.2285 184.038 83.2286 184.038 83.2289C184.036 83.2295 184.034 83.2309 184.03 83.233C184.021 83.2371 184.007 83.2441 183.988 83.2535C183.948 83.2723 183.885 83.3009 183.799 83.3364C183.628 83.4074 183.365 83.5059 183.012 83.6085C182.306 83.8137 181.238 84.0361 179.822 84.0885L179.859 85.0878C181.362 85.0322 182.511 84.7955 183.291 84.5688C183.681 84.4554 183.978 84.3446 184.182 84.2604C184.284 84.2182 184.362 84.1827 184.417 84.1568C184.444 84.1439 184.465 84.1333 184.48 84.1256C184.488 84.1217 184.494 84.1185 184.499 84.116C184.501 84.1148 184.503 84.1138 184.505 84.1129C184.506 84.1125 184.507 84.1121 184.507 84.1118C184.507 84.1116 184.508 84.1115 184.508 84.1114C184.508 84.1113 184.508 84.1112 184.508 84.1112C184.509 84.1111 184.509 84.111 184.273 83.6701ZM183.978 77.5812C184.415 77.5551 184.79 77.782 185.095 78.2703C185.406 78.7673 185.601 79.4809 185.638 80.2389C185.676 80.9961 185.554 81.7389 185.291 82.2884C185.031 82.8328 184.668 83.1281 184.223 83.1726L184.322 84.1677C185.228 84.0771 185.839 83.4612 186.193 82.7198C186.545 81.9834 186.68 81.0657 186.637 80.1894C186.593 79.3139 186.369 78.421 185.943 77.7401C185.512 77.0505 184.833 76.5282 183.919 76.583L183.978 77.5812ZM171.084 78.2301C173.641 78.2301 176.87 78.0673 179.453 77.9052C180.746 77.824 181.88 77.7429 182.69 77.682C183.096 77.6516 183.42 77.6262 183.644 77.6084C183.755 77.5995 183.842 77.5925 183.9 77.5878C183.93 77.5854 183.952 77.5836 183.967 77.5823C183.975 77.5817 183.98 77.5812 183.984 77.5809C183.986 77.5807 183.987 77.5806 183.988 77.5805C183.989 77.5805 183.989 77.5805 183.99 77.5805C183.99 77.5804 183.99 77.5804 183.99 77.5804C183.99 77.5804 183.99 77.5804 183.948 77.0821C183.907 76.5839 183.907 76.5839 183.907 76.5839C183.907 76.5839 183.907 76.5839 183.907 76.5839C183.906 76.5839 183.906 76.5839 183.906 76.584C183.905 76.5841 183.903 76.5842 183.902 76.5843C183.898 76.5846 183.892 76.5851 183.885 76.5857C183.87 76.5869 183.848 76.5887 183.819 76.5911C183.761 76.5958 183.675 76.6027 183.564 76.6116C183.342 76.6292 183.019 76.6545 182.615 76.6848C181.808 76.7454 180.678 76.8263 179.39 76.9071C176.812 77.069 173.608 77.2301 171.084 77.2301V78.2301ZM158.49 77.0821C158.45 77.5805 158.45 77.5805 158.45 77.5805C158.45 77.5805 158.45 77.5805 158.45 77.5805C158.45 77.5805 158.451 77.5805 158.451 77.5806C158.452 77.5807 158.454 77.5808 158.455 77.5809C158.459 77.5813 158.465 77.5817 158.473 77.5824C158.488 77.5836 158.51 77.5854 158.54 77.5878C158.599 77.5926 158.687 77.5996 158.799 77.6084C159.025 77.6262 159.352 77.6516 159.76 77.682C160.574 77.7429 161.71 77.824 162.992 77.9051C165.554 78.0672 168.716 78.2301 171.084 78.2301V77.2301C168.75 77.2301 165.615 77.0691 163.056 76.9071C161.778 76.8263 160.646 76.7454 159.834 76.6848C159.428 76.6545 159.102 76.6292 158.878 76.6115C158.766 76.6027 158.679 76.5958 158.62 76.591C158.591 76.5887 158.569 76.5869 158.554 76.5856C158.546 76.585 158.541 76.5846 158.537 76.5843C158.535 76.5841 158.534 76.584 158.533 76.5839C158.532 76.5839 158.532 76.5839 158.532 76.5838C158.532 76.5838 158.531 76.5838 158.531 76.5838C158.531 76.5838 158.531 76.5838 158.49 77.0821ZM158.186 83.1705C157.756 83.1534 157.404 82.8873 157.147 82.3546C156.886 81.815 156.763 81.0685 156.801 80.2994C156.838 79.5302 157.033 78.7998 157.346 78.289C157.654 77.7852 158.03 77.5554 158.461 77.5812L158.52 76.583C157.599 76.5278 156.921 77.0676 156.493 77.767C156.069 78.4594 155.845 79.3658 155.802 80.2504C155.759 81.135 155.893 82.0592 156.247 82.7902C156.604 83.5282 157.225 84.1329 158.146 84.1697L158.186 83.1705ZM163.182 83.604L158.209 83.172L158.123 84.1683L163.096 84.6003L163.182 83.604ZM170.418 102.343L163.608 83.9287L162.67 84.2756L169.48 102.69L170.418 102.343ZM160.644 134.147L170.427 102.665L169.472 102.368L159.689 133.85L160.644 134.147ZM212.684 105.176C212.701 105.129 212.719 105.082 212.737 105.034L211.801 104.681C211.783 104.729 211.765 104.777 211.747 104.824L212.684 105.176ZM201.001 136.236C204.88 125.867 208.767 115.478 212.683 105.177L211.748 104.822C207.831 115.125 203.943 125.517 200.064 135.886L201.001 136.236ZM200.993 136.257L201.001 136.236L200.064 135.886L200.056 135.906L200.993 136.257ZM200.977 136.3L200.993 136.257L200.056 135.906L200.04 135.949L200.977 136.3ZM196.901 147.187C198.259 143.564 199.618 139.933 200.977 136.3L200.04 135.949C198.681 139.583 197.323 143.213 195.964 146.836L196.901 147.187ZM219.715 105C219.715 122.591 210.457 138.354 196.183 146.579L196.682 147.445C211.272 139.038 220.715 122.941 220.715 105H219.715ZM214.1 82.2885C217.842 89.1773 219.715 96.7626 219.715 105H220.715C220.715 96.605 218.805 88.8543 214.979 81.8112L214.1 82.2885ZM212.801 104.863C214.153 101.277 216.676 94.5674 215.036 81.9852L214.044 82.1144C215.656 94.4792 213.183 101.017 211.866 104.51L212.801 104.863ZM212.737 105.034C212.758 104.977 212.78 104.92 212.801 104.863L211.866 104.51C211.844 104.568 211.822 104.625 211.801 104.681L212.737 105.034ZM123.614 105C123.614 124.253 134.587 141.276 150.868 149.137L151.303 148.236C135.37 140.544 124.614 123.872 124.614 105H123.614ZM127.548 85.4122C124.869 91.4767 123.614 97.9185 123.614 105H124.614C124.614 98.042 125.846 91.7398 128.463 85.8163L127.548 85.4122ZM133.331 98.7367C131.712 94.3036 130.094 89.872 128.475 85.4427L127.536 85.7859C129.154 90.215 130.773 94.6466 132.392 99.0797L133.331 98.7367ZM133.333 98.7409L133.331 98.7367L132.392 99.0797L132.393 99.0839L133.333 98.7409ZM133.333 98.742L133.333 98.7411L132.393 99.0837L132.394 99.0847L133.333 98.742ZM151.555 148.514C145.456 131.939 139.391 115.331 133.333 98.7418L132.394 99.0849C138.452 115.674 144.517 132.283 150.616 148.859L151.555 148.514ZM172.407 113.057L186.352 150.749L187.29 150.402L173.345 112.71L172.407 113.057ZM165.595 135.785C168.192 128.19 170.78 120.617 173.35 113.044L172.403 112.723C169.834 120.295 167.245 127.867 164.649 135.462L165.595 135.785ZM160.269 151.385C162.046 146.17 163.822 140.972 165.595 135.785L164.649 135.462C162.876 140.649 161.099 145.847 159.323 151.063L160.269 151.385ZM172.174 152.506C167.949 152.506 163.782 151.918 159.942 150.746L159.65 151.702C163.593 152.906 167.858 153.506 172.174 153.506V152.506ZM186.662 150.102C182.062 151.652 177.251 152.506 172.174 152.506V153.506C177.366 153.506 182.284 152.632 186.981 151.05L186.662 150.102Z" fill="#035D24"/>
<rect x="64.5" y="-2.5" width="215" height="215" rx="107.5" stroke="#035D24" stroke-dasharray="3 3"/>
<rect x="10.5" y="-56.5" width="323" height="323" rx="161.5" stroke="#035D24" stroke-dasharray="3 3"/>
<path d="M262.072 168.897L251.5 179.487V130.209L284.794 163.564H272.96H272.136L272.516 164.295C273.157 165.525 277.226 173.742 277.9 175.362C277.993 175.587 278.064 176.05 278.047 176.687C278.031 177.307 277.933 178.036 277.735 178.76C277.33 180.238 276.55 181.552 275.346 182.031C274.031 182.554 272.503 182.562 271.27 182.424C270.659 182.356 270.134 182.253 269.762 182.168C269.608 182.132 269.48 182.1 269.385 182.075L262.873 169.026L262.562 168.405L262.072 168.897Z" fill="#D2FBE1" stroke="#035D24"/>
</g>
<path d="M301 219H0V221H301V219Z" fill="#D9D9D9" mask="url(#path-1-inside-1_3199_22256)"/>
<defs>
<clipPath id="clip0_3199_22256">
<path d="M0 -10H301V220H0V-10Z" fill="white"/>
</clipPath>
</defs>
</svg>
