<svg width="269" height="210" viewBox="0 0 269 210" fill="none" xmlns="http://www.w3.org/2000/svg">
<g clip-path="url(#clip0_3199_22409)">
<mask id="path-1-inside-1_3199_22409" fill="white">
<path d="M0 -10H315V220H0V-10Z"/>
</mask>
<path d="M0 -10H315V220H0V-10Z" fill="#FFFFF4"/>
<path d="M108.5 -79L108.5 317" stroke="#5C5800" stroke-dasharray="3 3"/>
<path d="M406 119L55 119" stroke="#5C5800" stroke-dasharray="3 3"/>
<mask id="path-5-inside-2_3199_22409" fill="white">
<path fill-rule="evenodd" clip-rule="evenodd" d="M54.5 119C84.3234 119 108.5 94.8234 108.5 65C108.5 35.1766 84.3234 11 54.5 11C24.6766 11 0.5 35.1766 0.5 65C0.5 94.8234 24.6766 119 54.5 119ZM54.5001 91.9999C69.4118 91.9999 81.5001 79.9116 81.5001 64.9999C81.5001 50.0882 69.4118 37.9999 54.5001 37.9999C39.5884 37.9999 27.5001 50.0882 27.5001 64.9999C27.5001 79.9116 39.5884 91.9999 54.5001 91.9999Z"/>
</mask>
<path fill-rule="evenodd" clip-rule="evenodd" d="M54.5 119C84.3234 119 108.5 94.8234 108.5 65C108.5 35.1766 84.3234 11 54.5 11C24.6766 11 0.5 35.1766 0.5 65C0.5 94.8234 24.6766 119 54.5 119ZM54.5001 91.9999C69.4118 91.9999 81.5001 79.9116 81.5001 64.9999C81.5001 50.0882 69.4118 37.9999 54.5001 37.9999C39.5884 37.9999 27.5001 50.0882 27.5001 64.9999C27.5001 79.9116 39.5884 91.9999 54.5001 91.9999Z" fill="#FFFDC0"/>
<path d="M107.5 65C107.5 94.2711 83.7711 118 54.5 118V120C84.8757 120 109.5 95.3757 109.5 65H107.5ZM54.5 12C83.7711 12 107.5 35.7289 107.5 65H109.5C109.5 34.6243 84.8757 10 54.5 10V12ZM1.5 65C1.5 35.7289 25.2289 12 54.5 12V10C24.1243 10 -0.5 34.6243 -0.5 65H1.5ZM54.5 118C25.2289 118 1.5 94.2711 1.5 65H-0.5C-0.5 95.3757 24.1243 120 54.5 120V118ZM80.5001 64.9999C80.5001 79.3593 68.8595 90.9999 54.5001 90.9999V92.9999C69.9641 92.9999 82.5001 80.4639 82.5001 64.9999H80.5001ZM54.5001 38.9999C68.8595 38.9999 80.5001 50.6405 80.5001 64.9999H82.5001C82.5001 49.5359 69.9641 36.9999 54.5001 36.9999V38.9999ZM28.5001 64.9999C28.5001 50.6405 40.1407 38.9999 54.5001 38.9999V36.9999C39.0362 36.9999 26.5001 49.5359 26.5001 64.9999H28.5001ZM54.5001 90.9999C40.1407 90.9999 28.5001 79.3593 28.5001 64.9999H26.5001C26.5001 80.4639 39.0362 92.9999 54.5001 92.9999V90.9999Z" fill="#5C5800" mask="url(#path-5-inside-2_3199_22409)"/>
<mask id="path-7-inside-3_3199_22409" fill="white">
<path fill-rule="evenodd" clip-rule="evenodd" d="M216.5 119C246.323 119 270.5 94.8234 270.5 65C270.5 35.1766 246.323 11 216.5 11C186.677 11 162.5 35.1766 162.5 65C162.5 94.8234 186.677 119 216.5 119ZM216.5 82.9999C226.441 82.9999 234.5 74.941 234.5 64.9999C234.5 55.0588 226.441 46.9999 216.5 46.9999C206.559 46.9999 198.5 55.0588 198.5 64.9999C198.5 74.941 206.559 82.9999 216.5 82.9999Z"/>
</mask>
<path fill-rule="evenodd" clip-rule="evenodd" d="M216.5 119C246.323 119 270.5 94.8234 270.5 65C270.5 35.1766 246.323 11 216.5 11C186.677 11 162.5 35.1766 162.5 65C162.5 94.8234 186.677 119 216.5 119ZM216.5 82.9999C226.441 82.9999 234.5 74.941 234.5 64.9999C234.5 55.0588 226.441 46.9999 216.5 46.9999C206.559 46.9999 198.5 55.0588 198.5 64.9999C198.5 74.941 206.559 82.9999 216.5 82.9999Z" fill="#FFFDC0"/>
<path d="M269.5 65C269.5 94.2711 245.771 118 216.5 118V120C246.876 120 271.5 95.3757 271.5 65H269.5ZM216.5 12C245.771 12 269.5 35.7289 269.5 65H271.5C271.5 34.6243 246.876 10 216.5 10V12ZM163.5 65C163.5 35.7289 187.229 12 216.5 12V10C186.124 10 161.5 34.6243 161.5 65H163.5ZM216.5 118C187.229 118 163.5 94.2711 163.5 65H161.5C161.5 95.3757 186.124 120 216.5 120V118ZM233.5 64.9999C233.5 74.3887 225.889 81.9999 216.5 81.9999V83.9999C226.994 83.9999 235.5 75.4933 235.5 64.9999H233.5ZM216.5 47.9999C225.889 47.9999 233.5 55.6111 233.5 64.9999H235.5C235.5 54.5065 226.994 45.9999 216.5 45.9999V47.9999ZM199.5 64.9999C199.5 55.6111 207.111 47.9999 216.5 47.9999V45.9999C206.007 45.9999 197.5 54.5065 197.5 64.9999H199.5ZM216.5 81.9999C207.111 81.9999 199.5 74.3887 199.5 64.9999H197.5C197.5 75.4933 206.007 83.9999 216.5 83.9999V81.9999Z" fill="#5C5800" mask="url(#path-7-inside-3_3199_22409)"/>
<rect x="205.997" y="137.368" width="32" height="107" transform="rotate(67 205.997 137.368)" fill="#FFFDC0" stroke="#5C5800"/>
</g>
<path d="M315 219H0V221H315V219Z" fill="#D9D9D9" mask="url(#path-1-inside-1_3199_22409)"/>
<defs>
<clipPath id="clip0_3199_22409">
<path d="M0 -10H315V220H0V-10Z" fill="white"/>
</clipPath>
</defs>
</svg>
