<svg width="250" height="164" viewBox="0 0 250 164" fill="none" xmlns="http://www.w3.org/2000/svg">
<g clip-path="url(#clip0_3340_4042)">
<mask id="path-1-inside-1_3340_4042" fill="white">
<path d="M-29 -22H277V188H-29V-22Z"/>
</mask>
<path d="M-29 -22H277V188H-29V-22Z" fill="#FEF8F6"/>
<path d="M189.824 5.13043C189.824 16.584 180.53 25.8696 169.064 25.8696C157.599 25.8696 148.305 16.584 148.305 5.13043C148.305 -6.32312 157.599 -15.6087 169.064 -15.6087C180.53 -15.6087 189.824 -6.32312 189.824 5.13043Z" fill="#F8D5CD" stroke="#961B00" stroke-width="0.782609"/>
<line y1="-0.391304" x2="41.8559" y2="-0.391304" transform="matrix(0.70744 -0.706773 0.70744 0.706773 154.773 20.2617)" stroke="#961B00" stroke-width="0.782609"/>
<path d="M21.3906 -68.4348V3.95652C21.3906 16.491 31.5518 26.6522 44.0863 26.6522H167.347C179.882 26.6522 190.043 16.491 190.043 3.95652V-124" stroke="#961B00" stroke-width="0.782609" stroke-dasharray="2.35 2.35"/>
<path d="M21.3906 201.566V176.131C21.3906 163.597 31.5518 153.436 44.0863 153.436H232.304V-81.7383" stroke="#961B00" stroke-width="0.782609" stroke-dasharray="2.35 2.35"/>
<path d="M63.2578 271.218V218.392C63.2578 205.858 73.419 195.696 85.9535 195.696H251.867C264.401 195.696 274.562 185.535 274.562 173.001V48.9574C274.562 36.4229 284.723 26.2617 297.258 26.2617H380.606" stroke="#961B00" stroke-width="0.782609" stroke-dasharray="2.35 2.35"/>
<path d="M224.115 136.257H232.736V152.391H219.688C214.907 152.391 211.104 151.197 208.241 148.847C205.381 146.394 203.678 142.91 203.16 138.351L203.121 138.004H202.771H201.981H201.683L201.604 138.292C200.152 143.579 197.258 147.552 192.921 150.236L192.918 150.239C188.672 152.931 183.426 154.288 177.159 154.288C169.328 154.288 163.05 152.202 158.289 148.063C153.645 143.831 151.305 137.938 151.305 130.332C151.305 121.904 154.366 115.713 160.458 111.686C166.584 107.637 175.612 105.585 187.594 105.585H200.716H201.107V105.194V101.083C201.107 96.1827 199.937 92.4339 197.527 89.91C195.204 87.2601 191.272 85.9884 185.855 85.9884C180.854 85.9884 176.77 86.9455 173.632 88.8931C170.648 90.7457 168.061 93.1421 165.873 96.0785L153.63 85.196C156.331 80.7592 160.483 77.1037 166.111 74.2384L166.111 74.2384L166.114 74.2371C171.944 71.2181 179.413 69.696 188.542 69.696C199.658 69.696 208.253 72.2652 214.379 77.3527L214.379 77.3528L214.385 77.3572C220.591 82.3225 223.724 89.8885 223.724 100.135V135.866V136.257H224.115ZM201.107 117.842V117.451H200.716H188.226C183.399 117.451 179.71 118.257 177.218 119.928C174.698 121.617 173.448 124.158 173.448 127.486V130.648C173.448 133.614 174.611 135.902 176.942 137.456C179.24 138.988 182.275 139.735 186.013 139.735C190.189 139.735 193.75 138.717 196.673 136.66C199.633 134.577 201.107 131.553 201.107 127.644V117.842Z" fill="#F8D5CD" stroke="#961B00" stroke-width="0.782609"/>
<path d="M115.137 43.8698L148.731 153.442H135.481L126.236 122.26L126.153 121.98H125.861H87.1258H86.8337L86.7507 122.26L77.5057 153.442H64.5722L98.1661 43.8698H115.137ZM107.581 57.4403L107.499 57.1583H107.205H105.782H105.488L105.406 57.4403L89.9121 110.721L89.7666 111.221H90.2879H122.699H123.22L123.075 110.721L107.581 57.4403Z" fill="#F8D5CD" stroke="#961B00" stroke-width="0.782609"/>
</g>
<path d="M-28 188V-22H-30V188H-28Z" fill="#D9D9D9" mask="url(#path-1-inside-1_3340_4042)"/>
<defs>
<clipPath id="clip0_3340_4042">
<path d="M-29 -22H277V188H-29V-22Z" fill="white"/>
</clipPath>
</defs>
</svg>
