<svg width="350" height="250" viewBox="0 0 350 250" fill="none" xmlns="http://www.w3.org/2000/svg">
<g clip-path="url(#clip0_3473_44309)">
<rect width="350" height="250" fill="#FFFFF4"/>
<path d="M127 58L127 192" stroke="#5C5800" stroke-dasharray="2.35 2.35"/>
<path d="M222 -15L222 176.645C222 185.29 214.992 192.297 206.348 192.297L47.6522 192.297C39.0077 192.297 32 199.305 32 207.95L32 269" stroke="#5C5800" stroke-dasharray="2.35 2.35"/>
<path d="M32 -13V42.0344C32 50.6788 39.0077 57.6866 47.6522 57.6866H301.348C309.992 57.6866 317 64.6943 317 73.3387V262" stroke="#5C5800" stroke-dasharray="2.35 2.35"/>
<rect x="47.7071" y="123" width="45.669" height="45.669" transform="rotate(-45 47.7071 123)" fill="#FFFDC0" stroke="#5C5800"/>
<path d="M174.5 90.8845L186.96 109.065L187.061 109.212L187.231 109.262L208.372 115.494L194.932 132.963L194.823 133.103L194.828 133.281L195.434 155.314L174.668 147.929L174.5 147.869L174.332 147.929L153.566 155.314L154.172 133.281L154.177 133.103L154.068 132.963L140.628 115.494L161.769 109.262L161.939 109.212L162.04 109.065L174.5 90.8845Z" fill="#FFFDC0" stroke="#5C5800"/>
<path d="M269 91.0142L277.677 106.326L277.848 106.628L278.19 106.573L295.571 103.81L289.01 120.141L288.88 120.462L289.136 120.696L302.134 132.563L285.275 137.614L284.943 137.714L284.92 138.06L283.746 155.62L269.285 145.589L269 145.391L268.715 145.589L254.254 155.62L253.08 138.06L253.057 137.714L252.725 137.614L235.866 132.563L248.864 120.696L249.12 120.462L248.99 120.141L242.429 103.81L259.81 106.573L260.152 106.628L260.323 106.326L269 91.0142Z" fill="#FFFDC0" stroke="#5C5800"/>
</g>
<defs>
<clipPath id="clip0_3473_44309">
<rect width="350" height="250" fill="white"/>
</clipPath>
</defs>
</svg>
