<svg width="350" height="250" viewBox="0 0 350 250" fill="none" xmlns="http://www.w3.org/2000/svg">
<g clip-path="url(#clip0_3473_44303)">
<rect width="350" height="250" fill="#FEF8F6"/>
<path d="M32.5 -70V22.5C32.5 38.5163 45.4837 51.5 61.5 51.5H301.5" stroke="#961B00" stroke-dasharray="3 3"/>
<path d="M32.5 253V220.5C32.5 204.484 45.4837 191.5 61.5 191.5H302" stroke="#961B00" stroke-dasharray="3 3"/>
<path d="M302 261.5L302 -19.5" stroke="#961B00" stroke-dasharray="3 3"/>
<path d="M291.535 169.55H302.55V190.166H285.878C279.769 190.166 274.91 188.641 271.25 185.637C267.596 182.503 265.421 178.051 264.759 172.226L264.709 171.782H264.262H263.252H262.871L262.77 172.15C260.915 178.906 257.217 183.982 251.676 187.413L251.671 187.416C246.247 190.856 239.543 192.59 231.535 192.59C221.528 192.59 213.507 189.924 207.423 184.636C201.49 179.228 198.5 171.698 198.5 161.979C198.5 151.21 202.411 143.299 210.195 138.154C218.023 132.98 229.558 130.358 244.868 130.358H261.636H262.136V129.858V124.606C262.136 118.344 260.64 113.554 257.561 110.329C254.592 106.943 249.568 105.318 242.646 105.318C236.257 105.318 231.038 106.541 227.029 109.03C223.215 111.397 219.91 114.459 217.114 118.211L201.47 104.306C204.921 98.6363 210.227 93.9654 217.419 90.3041L217.422 90.3025C224.871 86.4449 234.415 84.5 246.081 84.5C260.284 84.5 271.267 87.7829 279.094 94.2836L279.094 94.2836L279.101 94.2894C287.032 100.634 291.035 110.301 291.035 123.394V169.05V169.55H291.535ZM262.136 146.02V145.52H261.636H245.677C239.508 145.52 234.795 146.551 231.61 148.685C228.39 150.844 226.793 154.091 226.793 158.343V162.383C226.793 166.173 228.279 169.097 231.258 171.082C234.194 173.04 238.073 173.994 242.848 173.994C248.185 173.994 252.734 172.693 256.469 170.065C260.252 167.403 262.136 163.539 262.136 158.545V146.02Z" fill="#F8D5CD" stroke="#961B00"/>
<path d="M152.287 51.5L195.212 191.509H178.282L166.469 151.665L166.363 151.308H165.989H116.495H116.122L116.015 151.665L104.202 191.509H87.6763L130.602 51.5H152.287ZM142.631 68.8401L142.527 68.4797H142.151H140.333H139.958L139.853 68.8401L120.055 136.921L119.869 137.56H120.535H161.949H162.615L162.429 136.921L142.631 68.8401Z" fill="#F8D5CD" stroke="#961B00"/>
</g>
<defs>
<clipPath id="clip0_3473_44303">
<rect width="350" height="250" fill="white"/>
</clipPath>
</defs>
</svg>
