<svg width="250" height="164" viewBox="0 0 250 164" fill="none" xmlns="http://www.w3.org/2000/svg">
<g clip-path="url(#clip0_3340_4318)">
<mask id="path-1-inside-1_3340_4318" fill="white">
<path d="M-36 -14H266V178H-36V-14Z"/>
</mask>
<path d="M-36 -14H266V178H-36V-14Z" fill="#FFFFF4"/>
<path d="M97.1523 -62L97.1523 247.913" stroke="#5C5800" stroke-width="0.782609" stroke-dasharray="2.35 2.35"/>
<path d="M329.977 92.957L55.2809 92.957" stroke="#5C5800" stroke-width="0.782609" stroke-dasharray="2.35 2.35"/>
<path d="M223.938 -62L223.937 247.913" stroke="#5C5800" stroke-width="0.782609" stroke-dasharray="2.35 2.35"/>
<mask id="path-6-inside-2_3340_4318" fill="white">
<path fill-rule="evenodd" clip-rule="evenodd" d="M54.8937 92.9563C78.2337 92.9563 97.1545 74.0355 97.1545 50.6954C97.1545 27.3554 78.2337 8.43457 54.8937 8.43457C31.5536 8.43457 12.6328 27.3554 12.6328 50.6954C12.6328 74.0355 31.5536 92.9563 54.8937 92.9563ZM54.8961 71.8253C66.5661 71.8253 76.0265 62.3649 76.0265 50.6949C76.0265 39.0249 66.5661 29.5645 54.8961 29.5645C43.226 29.5645 33.7656 39.0249 33.7656 50.6949C33.7656 62.3649 43.226 71.8253 54.8961 71.8253Z"/>
</mask>
<path fill-rule="evenodd" clip-rule="evenodd" d="M54.8937 92.9563C78.2337 92.9563 97.1545 74.0355 97.1545 50.6954C97.1545 27.3554 78.2337 8.43457 54.8937 8.43457C31.5536 8.43457 12.6328 27.3554 12.6328 50.6954C12.6328 74.0355 31.5536 92.9563 54.8937 92.9563ZM54.8961 71.8253C66.5661 71.8253 76.0265 62.3649 76.0265 50.6949C76.0265 39.0249 66.5661 29.5645 54.8961 29.5645C43.226 29.5645 33.7656 39.0249 33.7656 50.6949C33.7656 62.3649 43.226 71.8253 54.8961 71.8253Z" fill="#FFFDC0"/>
<path d="M96.3719 50.6954C96.3719 73.6032 77.8015 92.1737 54.8937 92.1737V93.7389C78.6659 93.7389 97.9372 74.4677 97.9372 50.6954H96.3719ZM54.8937 9.21718C77.8015 9.21718 96.3719 27.7876 96.3719 50.6954H97.9372C97.9372 26.9232 78.6659 7.65196 54.8937 7.65196V9.21718ZM13.4154 50.6954C13.4154 27.7876 31.9859 9.21718 54.8937 9.21718V7.65196C31.1214 7.65196 11.8502 26.9232 11.8502 50.6954H13.4154ZM54.8937 92.1737C31.9859 92.1737 13.4154 73.6032 13.4154 50.6954H11.8502C11.8502 74.4677 31.1214 93.7389 54.8937 93.7389V92.1737ZM75.2439 50.6949C75.2439 61.9327 66.1339 71.0427 54.8961 71.0427V72.6079C66.9983 72.6079 76.8091 62.7971 76.8091 50.6949H75.2439ZM54.8961 30.3471C66.1339 30.3471 75.2439 39.4571 75.2439 50.6949H76.8091C76.8091 38.5926 66.9983 28.7818 54.8961 28.7818V30.3471ZM34.5482 50.6949C34.5482 39.4571 43.6583 30.3471 54.8961 30.3471V28.7818C42.7938 28.7818 32.983 38.5926 32.983 50.6949H34.5482ZM54.8961 71.0427C43.6583 71.0427 34.5482 61.9327 34.5482 50.6949H32.983C32.983 62.7971 42.7938 72.6079 54.8961 72.6079V71.0427Z" fill="#5C5800" mask="url(#path-6-inside-2_3340_4318)"/>
<mask id="path-8-inside-3_3340_4318" fill="white">
<path fill-rule="evenodd" clip-rule="evenodd" d="M181.675 92.9563C205.015 92.9563 223.936 74.0355 223.936 50.6954C223.936 27.3554 205.015 8.43457 181.675 8.43457C158.335 8.43457 139.414 27.3554 139.414 50.6954C139.414 74.0355 158.335 92.9563 181.675 92.9563ZM181.677 64.7823C189.457 64.7823 195.764 58.4754 195.764 50.6954C195.764 42.9153 189.457 36.6084 181.677 36.6084C173.897 36.6084 167.59 42.9153 167.59 50.6954C167.59 58.4754 173.897 64.7823 181.677 64.7823Z"/>
</mask>
<path fill-rule="evenodd" clip-rule="evenodd" d="M181.675 92.9563C205.015 92.9563 223.936 74.0355 223.936 50.6954C223.936 27.3554 205.015 8.43457 181.675 8.43457C158.335 8.43457 139.414 27.3554 139.414 50.6954C139.414 74.0355 158.335 92.9563 181.675 92.9563ZM181.677 64.7823C189.457 64.7823 195.764 58.4754 195.764 50.6954C195.764 42.9153 189.457 36.6084 181.677 36.6084C173.897 36.6084 167.59 42.9153 167.59 50.6954C167.59 58.4754 173.897 64.7823 181.677 64.7823Z" fill="#FFFDC0"/>
<path d="M223.153 50.6954C223.153 73.6032 204.583 92.1737 181.675 92.1737V93.7389C205.447 93.7389 224.718 74.4677 224.718 50.6954H223.153ZM181.675 9.21718C204.583 9.21718 223.153 27.7876 223.153 50.6954H224.718C224.718 26.9232 205.447 7.65196 181.675 7.65196V9.21718ZM140.197 50.6954C140.197 27.7876 158.767 9.21718 181.675 9.21718V7.65196C157.903 7.65196 138.631 26.9232 138.631 50.6954H140.197ZM181.675 92.1737C158.767 92.1737 140.197 73.6032 140.197 50.6954H138.631C138.631 74.4677 157.903 93.7389 181.675 93.7389V92.1737ZM194.981 50.6954C194.981 58.0431 189.025 63.9997 181.677 63.9997V65.5649C189.889 65.5649 196.546 58.9076 196.546 50.6954H194.981ZM181.677 37.391C189.025 37.391 194.981 43.3476 194.981 50.6954H196.546C196.546 42.4831 189.889 35.8258 181.677 35.8258V37.391ZM168.372 50.6954C168.372 43.3476 174.329 37.391 181.677 37.391V35.8258C173.465 35.8258 166.807 42.4831 166.807 50.6954H168.372ZM181.677 63.9997C174.329 63.9997 168.372 58.0431 168.372 50.6954H166.807C166.807 58.9076 173.465 65.5649 181.677 65.5649V63.9997Z" fill="#5C5800" mask="url(#path-8-inside-3_3340_4318)"/>
<rect x="173.457" y="107.331" width="25.0435" height="83.7391" transform="rotate(67 173.457 107.331)" fill="#FFFDC0" stroke="#5C5800" stroke-width="0.782609"/>
<rect x="308.46" y="122.696" width="25.0435" height="83.7391" transform="rotate(90 308.46 122.696)" fill="#FFFDC0" stroke="#5C5800" stroke-width="0.782609"/>
</g>
<path d="M-35 178V-14H-37V178H-35Z" fill="#D9D9D9" mask="url(#path-1-inside-1_3340_4318)"/>
<defs>
<clipPath id="clip0_3340_4318">
<path d="M-36 -14H266V178H-36V-14Z" fill="white"/>
</clipPath>
</defs>
</svg>
