<svg width="293" height="210" viewBox="0 0 293 210" fill="none" xmlns="http://www.w3.org/2000/svg">
<g clip-path="url(#clip0_3199_22306)">
<mask id="path-1-inside-1_3199_22306" fill="white">
<path d="M0 -10H314V220H0V-10Z"/>
</mask>
<path d="M0 -10H314V220H0V-10Z" fill="#FEF8F6"/>
<path d="M238.719 -6C238.719 8.6351 226.844 20.5 212.193 20.5C197.543 20.5 185.668 8.6351 185.668 -6C185.668 -20.6351 197.543 -32.5 212.193 -32.5C226.844 -32.5 238.719 -20.6351 238.719 -6Z" fill="#F8D5CD" stroke="#961B00"/>
<line y1="-0.5" x2="53.4825" y2="-0.5" transform="matrix(0.70744 -0.706773 0.70744 0.706773 193.93 13.3359)" stroke="#961B00"/>
<path d="M23.5 -100V-7.5C23.5 8.51626 36.4837 21.5 52.5 21.5H210C226.016 21.5 239 8.51626 239 -7.5V-171" stroke="#961B00" stroke-dasharray="3 3"/>
<path d="M23.5 245V212.5C23.5 196.484 36.4837 183.5 52.5 183.5H293V-117" stroke="#961B00" stroke-dasharray="3 3"/>
<path d="M77 334V266.5C77 250.484 89.9837 237.5 106 237.5H318C334.016 237.5 347 224.516 347 208.5V50C347 33.9837 359.984 21 376 21H482.5" stroke="#961B00" stroke-dasharray="3 3"/>
<path d="M282.535 161.55H293.55V182.166H276.878C270.769 182.166 265.91 180.641 262.25 177.637C258.596 174.503 256.421 170.051 255.759 164.226L255.709 163.782H255.262H254.252H253.871L253.77 164.15C251.915 170.906 248.217 175.982 242.676 179.413L242.671 179.416C237.247 182.856 230.543 184.59 222.535 184.59C212.528 184.59 204.507 181.924 198.423 176.636C192.49 171.228 189.5 163.698 189.5 153.979C189.5 143.21 193.411 135.299 201.195 130.154C209.023 124.98 220.558 122.358 235.868 122.358H252.636H253.136V121.858V116.606C253.136 110.344 251.64 105.554 248.561 102.329C245.592 98.9431 240.568 97.3181 233.646 97.3181C227.257 97.3181 222.038 98.541 218.029 101.03C214.215 103.397 210.91 106.459 208.114 110.211L192.47 96.3056C195.921 90.6363 201.227 85.9654 208.419 82.3041L208.422 82.3025C215.871 78.4449 225.415 76.5 237.081 76.5C251.284 76.5 262.267 79.7829 270.094 86.2836L270.094 86.2836L270.101 86.2894C278.032 92.6339 282.035 102.301 282.035 115.394V161.05V161.55H282.535ZM253.136 138.02V137.52H252.636H236.677C230.508 137.52 225.795 138.551 222.61 140.685C219.39 142.844 217.793 146.091 217.793 150.343V154.383C217.793 158.173 219.279 161.097 222.258 163.082C225.194 165.04 229.073 165.994 233.848 165.994C239.185 165.994 243.734 164.693 247.469 162.065C251.252 159.403 253.136 155.539 253.136 150.545V138.02Z" fill="#F8D5CD" stroke="#961B00"/>
<path d="M143.287 43.5L186.212 183.509H169.282L157.469 143.665L157.363 143.308H156.989H107.495H107.122L107.015 143.665L95.2024 183.509H78.6763L121.602 43.5H143.287ZM133.631 60.8401L133.527 60.4797H133.151H131.333H130.958L130.853 60.8401L111.055 128.921L110.869 129.56H111.535H152.949H153.615L153.429 128.921L133.631 60.8401Z" fill="#F8D5CD" stroke="#961B00"/>
</g>
<path d="M314 219H0V221H314V219Z" fill="#D9D9D9" mask="url(#path-1-inside-1_3199_22306)"/>
<defs>
<clipPath id="clip0_3199_22306">
<path d="M0 -10H314V220H0V-10Z" fill="white"/>
</clipPath>
</defs>
</svg>
