<svg width="265" height="210" viewBox="0 0 265 210" fill="none" xmlns="http://www.w3.org/2000/svg">
<g clip-path="url(#clip0_3199_22355)">
<mask id="path-1-inside-1_3199_22355" fill="white">
<path d="M0 -10H289V220H0V-10Z"/>
</mask>
<path d="M0 -10H289V220H0V-10Z" fill="#FDF5FE"/>
<path d="M376 241.5V134.5C376 118.484 363.016 105.5 347 105.5H81C64.9837 105.5 52 118.484 52 134.5V298" stroke="#750771" stroke-dasharray="3 3"/>
<path d="M268 -2.5H189C172.984 -2.5 160 10.4837 160 26.5V184C160 200.016 147.016 213 131 213L18 213" stroke="#750771" stroke-dasharray="3 3"/>
<path d="M112.496 47.2177L112.414 46.7246L111.901 46.8106L112.007 47.3193L112.496 47.2177ZM112.496 47.2177L112.414 46.7246L112.414 46.7245L112.416 46.7242L112.423 46.723L112.452 46.7181L112.565 46.6988C112.664 46.6817 112.809 46.6563 112.995 46.6233C113.366 46.5572 113.896 46.4605 114.532 46.3383C115.806 46.0937 117.502 45.7474 119.196 45.34C120.895 44.9315 122.573 44.4658 123.82 43.9848C124.446 43.743 124.938 43.5071 125.264 43.2863C125.427 43.1758 125.529 43.0825 125.585 43.0113C125.591 43.0044 125.596 42.9979 125.6 42.992C125.51 42.925 125.349 42.8408 125.095 42.7491C124.589 42.5662 123.839 42.3963 122.904 42.2425C121.041 41.9363 118.545 41.7098 116.032 41.5442C113.523 41.3788 111.013 41.2751 109.129 41.2128C108.187 41.1817 107.402 41.1608 106.853 41.1478C106.579 41.1413 106.363 41.1368 106.216 41.1338L106.049 41.1306L106.006 41.1299L106 41.1298L105.994 41.1299L105.951 41.1306L105.784 41.1338C105.637 41.1368 105.421 41.1413 105.147 41.1478C104.598 41.1608 103.813 41.1817 102.871 41.2128C100.987 41.2751 98.4767 41.3788 95.9679 41.5442C93.4554 41.7098 90.9588 41.9363 89.0964 42.2425C88.1611 42.3963 87.4112 42.5662 86.9049 42.7491C86.6514 42.8407 86.4898 42.9249 86.4001 42.9919C86.4044 42.9977 86.4091 43.004 86.4146 43.0108C86.4713 43.0821 86.5733 43.1755 86.7369 43.286C87.0641 43.5069 87.5567 43.7429 88.1847 43.9846C89.4342 44.4658 91.1164 44.9315 92.8187 45.3399C94.5165 45.7473 96.2164 46.0936 97.4931 46.3382C98.1311 46.4605 98.6626 46.5571 99.0344 46.6232C99.2203 46.6563 99.3662 46.6817 99.4654 46.6988L99.5785 46.7181L99.6072 46.723L99.6143 46.7242L99.6161 46.7245L99.6165 46.7245L99.534 47.2177M112.496 47.2177C112.007 47.3193 112.007 47.3194 112.007 47.3196L112.007 47.3204L112.008 47.3237L112.011 47.337L112.022 47.3899L112.064 47.597C112.101 47.7786 112.156 48.0451 112.224 48.3847C112.361 49.064 112.555 50.0354 112.781 51.2035C113.234 53.54 113.817 56.6616 114.34 59.8048C114.864 62.9508 115.326 66.1074 115.537 68.5179C115.643 69.7264 115.684 70.7275 115.643 71.4397C115.622 71.7987 115.582 72.057 115.532 72.223C115.527 72.2386 115.522 72.2525 115.518 72.2649C115.422 72.2137 115.288 72.1139 115.116 71.9475C114.757 71.5994 114.318 71.0448 113.823 70.3281C112.838 68.9011 111.691 66.9187 110.595 64.8981C109.501 62.8809 108.465 60.8394 107.702 59.3013C107.321 58.5325 107.008 57.89 106.791 57.4399C106.682 57.2149 106.597 57.038 106.54 56.9174L106.474 56.78L106.457 56.7449L106.453 56.7361L106.452 56.7339L106.452 56.7334C106.452 56.7333 106.452 56.7333 106 56.9472M106 56.9472L106.452 56.7333L105.999 55.7766L105.548 56.734L106 56.9472ZM106 56.9472C105.548 56.734 105.548 56.734 105.548 56.7341L105.547 56.7346L105.546 56.7368L105.542 56.7456L105.526 56.7806L105.46 56.9181C105.403 57.0387 105.319 57.2156 105.21 57.4406C104.994 57.8907 104.682 58.5332 104.302 59.302C103.542 60.8401 102.51 62.8815 101.42 64.8987C100.328 66.9193 99.1846 68.9017 98.2024 70.3286C97.709 71.0454 97.2711 71.5999 96.9125 71.9478C96.7414 72.1139 96.6079 72.2135 96.5125 72.2647C96.5081 72.2523 96.5036 72.2385 96.4989 72.223C96.4482 72.057 96.408 71.7987 96.3874 71.4397C96.3466 70.7275 96.3877 69.7264 96.4936 68.5179C96.7049 66.1074 97.1664 62.9508 97.6901 59.8048C98.2134 56.6616 98.7968 53.54 99.2495 51.2035C99.4758 50.0354 99.6694 49.064 99.8064 48.3847C99.8749 48.0451 99.9292 47.7786 99.9664 47.597L100.009 47.3899L100.02 47.337L100.023 47.3237L100.023 47.3204L100.024 47.3196C100.024 47.3194 100.024 47.3193 99.534 47.2177M99.534 47.2177L100.024 47.3193L100.129 46.8104L99.6166 46.7246L99.534 47.2177ZM125.654 43.0403C125.654 43.0403 125.653 43.0391 125.651 43.0367C125.653 43.0391 125.654 43.0403 125.654 43.0403ZM86.369 42.9366C86.369 42.9366 86.3691 42.937 86.3692 42.9377L86.369 42.9366ZM86.3486 43.0367C86.347 43.0391 86.346 43.0403 86.3459 43.0403C86.3457 43.0403 86.3465 43.0391 86.3486 43.0367ZM96.4256 72.3005C96.4256 72.3005 96.4266 72.3003 96.4284 72.3002L96.4256 72.3005ZM115.605 72.3005C115.605 72.3006 115.604 72.3005 115.602 72.3001L115.605 72.3005ZM106 28.9297C108.255 28.9297 110.075 30.7493 110.075 33.0047C110.075 35.2644 108.251 37.1102 106 37.1102C103.777 37.1102 101.925 35.2622 101.925 33.0047C101.925 30.7515 103.773 28.9297 106 28.9297Z" fill="#FBE2FA" stroke="#750771"/>
<path d="M219.49 34.2129L219.49 34.2138C219.902 36.0301 219.513 38.5504 218.485 40.6215C217.451 42.7056 215.867 44.1563 214 44.1563C212.116 44.1563 210.525 42.7036 209.487 40.6209C208.456 38.551 208.068 36.032 208.478 34.2159C209.129 31.4457 211.526 29.6318 214 29.6318C216.446 29.6318 218.869 31.448 219.49 34.2129ZM195.882 36.9611L195.882 36.9599C196.411 34.6478 198.442 33.1088 200.488 33.1088C202.535 33.1088 204.565 34.6478 205.094 36.9599L205.095 36.9611C205.444 38.4701 205.118 40.5848 204.246 42.3282C203.368 44.0839 202.036 45.2848 200.488 45.2848C198.94 45.2848 197.608 44.0839 196.73 42.3282C195.859 40.5848 195.533 38.4701 195.882 36.9611ZM222.905 36.9611L222.905 36.9599C223.435 34.6461 225.467 33.1088 227.481 33.1088C229.527 33.1088 231.558 34.6478 232.087 36.9599L232.087 36.9611C232.436 38.4701 232.11 40.5848 231.239 42.3282C230.361 44.0839 229.029 45.2848 227.481 45.2848C225.95 45.2848 224.625 44.0862 223.75 42.329C222.882 40.5851 222.556 38.4702 222.905 36.9611ZM223.954 58.4454L223.953 58.4453L223.951 58.4553L220.14 71.5637C219.839 72.4981 219.047 73.3315 217.928 73.9392C216.812 74.5454 215.415 74.9003 214 74.9003C212.552 74.9003 211.148 74.5448 210.033 73.9392C208.916 73.3323 208.13 72.499 207.829 71.5631L203.988 58.4542L203.988 58.4542L203.985 58.4471C202.847 54.7671 203.403 51.8988 205.136 49.9485C206.886 47.9787 209.932 46.8338 214 46.8338C218.052 46.8338 221.09 47.9785 222.832 49.9477C224.557 51.8974 225.106 54.7652 223.954 58.4454ZM201.626 48.1217L201.618 48.1322L201.61 48.1432C200.031 50.3024 198.557 54.0018 200.253 59.532C200.254 59.5328 200.254 59.5337 200.254 59.5345L203.554 70.7008C202.66 71.1454 201.578 71.3928 200.488 71.3928C199.268 71.3928 198.093 71.0978 197.162 70.5919C196.23 70.0854 195.579 69.3899 195.324 68.604L192.062 57.4782L192.062 57.4782L192.06 57.4716C191.105 54.3706 191.577 51.9755 193.023 50.3532C194.486 48.7112 197.045 47.7488 200.488 47.7488C200.959 47.7488 201.428 47.7693 201.884 47.8101C201.795 47.9164 201.708 48.0213 201.626 48.1217ZM235.91 57.4696L235.909 57.4695L235.907 57.4782L232.645 68.604C232.39 69.3899 231.739 70.0854 230.807 70.5919C229.876 71.0978 228.701 71.3928 227.481 71.3928C226.391 71.3928 225.309 71.1454 224.415 70.7006L227.684 59.5964C227.684 59.5954 227.685 59.5943 227.685 59.5933C229.41 54.006 227.941 50.305 226.328 48.1419C226.249 48.0335 226.164 47.9221 226.075 47.8102C226.526 47.7694 226.992 47.7488 227.481 47.7488C230.924 47.7488 233.491 48.7113 234.958 50.3536C236.407 51.9756 236.879 54.3697 235.91 57.4696Z" fill="#FBE2FA" stroke="#750771"/>
<path d="M102.341 171.299L99.7626 176.456L82.3067 159L99.7626 141.544L102.341 146.701L90.3961 158.647L90.0425 159L90.3961 159.354L102.341 171.299ZM109.658 146.701L112.237 141.544L129.692 159L112.237 176.456L109.658 171.299L121.603 159.354L121.957 159L121.603 158.647L109.658 146.701Z" fill="#FBE2FA" stroke="#750771"/>
<path d="M198.092 156.45H205.875V167.65H191.125C188.047 167.65 185.525 165.128 185.525 162.05V140.7C185.525 137.621 188.047 135.1 191.125 135.1H212.475C215.554 135.1 218.075 137.621 218.075 140.7V146.3H213.97C212.232 146.3 210.516 146.992 209.339 148.009L206.85 140.541L206.736 140.2H206.375H197.622H197.264L197.149 140.538L189.859 161.888L189.633 162.55H190.332H195.487H195.835L195.956 162.223L198.092 156.45ZM237.638 165.6H238.138V165.1V161.806V161.306H237.638H228.469V155.187V154.687H227.969H224.431H223.931V155.187V161.306H214.763H214.263V161.806V165.1V165.6H214.763H218.236C218.641 167.997 219.853 170.688 221.723 172.89C220.61 173.319 219.449 173.689 218.406 173.964C217.142 174.299 216.097 174.482 215.525 174.482H215.216L215.078 174.758C215.028 174.859 215.026 174.952 215.025 174.96C215.024 174.988 215.025 175.012 215.025 175.025C215.027 175.052 215.03 175.077 215.033 175.094C215.038 175.13 215.045 175.174 215.054 175.219C215.071 175.312 215.096 175.44 215.126 175.591L215.131 175.613C215.191 175.915 215.271 176.316 215.35 176.758C215.514 177.681 215.664 178.729 215.636 179.414L215.615 179.935H216.135C217.499 179.935 219.246 179.533 221.042 178.896C222.753 178.288 224.544 177.455 226.142 176.509C227.769 177.455 229.59 178.289 231.331 178.896C233.158 179.534 234.934 179.935 236.326 179.935H236.847L236.826 179.414C236.798 178.727 236.941 177.677 237.101 176.756C237.18 176.303 237.261 175.894 237.322 175.593C237.346 175.479 237.366 175.382 237.382 175.302C237.388 175.277 237.393 175.253 237.397 175.231C237.406 175.187 237.414 175.149 237.419 175.122C237.422 175.108 237.425 175.094 237.427 175.081C237.428 175.075 237.43 175.065 237.431 175.055C237.431 175.054 237.436 175.021 237.436 174.982V174.482H236.936C236.35 174.482 235.267 174.291 233.96 173.949C232.875 173.665 231.668 173.286 230.519 172.852C232.335 170.651 233.518 167.968 233.92 165.6H237.638ZM236.442 174.91L236.441 174.912C236.443 174.902 236.444 174.9 236.442 174.91ZM228.681 165.6C228.175 167.573 227.308 169.219 226.137 170.409C224.938 169.217 224.049 167.57 223.561 165.6H228.681ZM201.775 145.497L204.177 152.4H199.419L201.775 145.497ZM215.525 150.35H236.875C239.954 150.35 242.475 152.871 242.475 155.95V177.3C242.475 180.378 239.954 182.9 236.875 182.9H215.525C212.447 182.9 209.925 180.378 209.925 177.3V155.95C209.925 152.871 212.447 150.35 215.525 150.35Z" fill="#FBE2FA" stroke="#750771"/>
</g>
<path d="M289 219H0V221H289V219Z" fill="#D9D9D9" mask="url(#path-1-inside-1_3199_22355)"/>
<defs>
<clipPath id="clip0_3199_22355">
<path d="M0 -10H289V220H0V-10Z" fill="white"/>
</clipPath>
</defs>
</svg>
