<svg width="350" height="250" viewBox="0 0 350 250" fill="none" xmlns="http://www.w3.org/2000/svg">
<g clip-path="url(#clip0_3473_44356)">
<rect width="394" height="342" transform="translate(-22 -46)" fill="#F5FEF8"/>
<path fill-rule="evenodd" clip-rule="evenodd" d="M228.723 124.76C228.723 95.1452 204.567 71.0127 174.925 71.0127C145.228 71.0127 121.127 95.1452 121.127 124.76C121.127 154.428 145.228 178.507 174.925 178.507C204.567 178.507 228.723 154.428 228.723 124.76ZM162.984 153.623L144.639 104.444C147.598 104.336 150.933 104.014 150.933 104.014C153.623 103.691 153.3 97.9405 150.611 98.048C150.611 98.048 142.81 98.6392 137.861 98.6392C136.892 98.6392 135.87 98.6392 134.74 98.5855C143.294 85.4712 158.089 76.9791 174.927 76.9791C187.462 76.9791 198.867 81.6551 207.475 89.556C203.817 88.9647 198.598 91.6521 198.598 98.048C198.598 101.531 200.455 104.519 202.542 107.879C202.838 108.356 203.139 108.84 203.44 109.335C205.323 112.613 206.399 116.645 206.399 122.557C206.399 130.565 198.867 149.43 198.867 149.43L182.567 104.444C185.472 104.336 186.978 103.53 186.978 103.53C189.668 103.261 189.345 96.8118 186.655 96.9731C186.655 96.9731 178.908 97.618 173.851 97.618C169.171 97.618 161.316 96.9731 161.316 96.9731C158.626 96.8118 158.304 103.423 160.994 103.53L165.943 103.96L172.722 122.288L162.984 153.623ZM214.911 124.447L214.87 124.556L214.793 124.759C210.897 135.008 207.029 145.345 203.17 155.662L203.165 155.674L203.164 155.676L203.16 155.689L203.146 155.724C201.792 159.345 200.438 162.964 199.084 166.575C213.448 158.298 222.755 142.442 222.755 124.759C222.755 116.482 220.872 108.85 217.107 101.917C218.725 114.332 216.239 120.925 214.911 124.447ZM153.943 168.241C137.911 160.501 127.098 143.732 127.098 124.759C127.098 117.772 128.335 111.43 130.971 105.464C132.582 109.873 134.193 114.284 135.804 118.697L135.805 118.7L135.807 118.704C141.836 135.214 147.873 151.744 153.943 168.241ZM189.508 170.122L175.628 132.606C173.071 140.143 170.495 147.68 167.911 155.239C166.146 160.402 164.378 165.576 162.609 170.767C166.483 171.949 170.679 172.541 174.929 172.541C180.04 172.541 184.882 171.681 189.508 170.122Z" fill="#D2FBE1"/>
<path d="M144.639 104.444L144.621 103.944L143.928 103.969L144.171 104.619L144.639 104.444ZM162.984 153.623L162.516 153.797L163.027 155.169L163.462 153.771L162.984 153.623ZM150.933 104.014L150.982 104.512L150.993 104.51L150.933 104.014ZM150.611 98.048L150.591 97.5484L150.582 97.5488L150.573 97.5494L150.611 98.048ZM134.74 98.5855L134.321 98.3123L133.845 99.0434L134.716 99.0849L134.74 98.5855ZM207.475 89.556L207.395 90.0495L209.042 90.3157L207.813 89.1876L207.475 89.556ZM202.542 107.879L202.966 107.615L202.542 107.879ZM203.44 109.335L203.874 109.086L203.867 109.075L203.44 109.335ZM198.867 149.43L198.397 149.601L198.845 150.835L199.332 149.616L198.867 149.43ZM182.567 104.444L182.548 103.944L181.863 103.97L182.096 104.614L182.567 104.444ZM186.978 103.53L186.928 103.033L186.83 103.043L186.742 103.089L186.978 103.53ZM186.655 96.9731L186.625 96.4738L186.614 96.4748L186.655 96.9731ZM161.316 96.9731L161.357 96.4746L161.346 96.474L161.316 96.9731ZM160.994 103.53L161.037 103.032L161.025 103.031L161.014 103.031L160.994 103.53ZM165.943 103.96L166.412 103.787L166.302 103.489L165.986 103.462L165.943 103.96ZM172.722 122.288L173.199 122.436L173.249 122.274L173.19 122.115L172.722 122.288ZM214.87 124.556L214.402 124.379L214.402 124.38L214.87 124.556ZM214.911 124.447L214.443 124.271L214.443 124.271L214.911 124.447ZM214.793 124.759L215.261 124.937L215.261 124.936L214.793 124.759ZM203.17 155.662L203.638 155.837L203.638 155.837L203.17 155.662ZM203.165 155.674L202.697 155.499L202.696 155.501L203.165 155.674ZM203.164 155.676L203.633 155.851L203.633 155.849L203.164 155.676ZM203.16 155.689L203.628 155.864L203.628 155.864L203.16 155.689ZM203.146 155.724L202.678 155.549L202.678 155.549L203.146 155.724ZM199.084 166.575L198.616 166.399L198.127 167.703L199.334 167.008L199.084 166.575ZM217.107 101.917L217.546 101.678L216.611 101.982L217.107 101.917ZM153.943 168.241L153.725 168.691L154.839 169.229L154.412 168.068L153.943 168.241ZM130.971 105.464L131.441 105.293L131.015 104.128L130.514 105.262L130.971 105.464ZM135.804 118.697L135.335 118.868L135.335 118.869L135.804 118.697ZM135.805 118.7L136.275 118.529L136.275 118.528L135.805 118.7ZM135.807 118.704L135.337 118.875L135.337 118.875L135.807 118.704ZM175.628 132.606L176.097 132.433L175.608 131.11L175.155 132.446L175.628 132.606ZM189.508 170.122L189.668 170.596L190.156 170.431L189.977 169.948L189.508 170.122ZM167.911 155.239L167.438 155.077L167.911 155.239ZM162.609 170.767L162.136 170.606L161.97 171.094L162.463 171.245L162.609 170.767ZM174.925 71.5127C204.292 71.5127 228.223 95.4217 228.223 124.76H229.223C229.223 94.8686 204.843 70.5127 174.925 70.5127V71.5127ZM121.627 124.76C121.627 95.4214 145.504 71.5127 174.925 71.5127V70.5127C144.952 70.5127 120.627 94.8689 120.627 124.76H121.627ZM174.925 178.007C145.504 178.007 121.627 154.152 121.627 124.76H120.627C120.627 154.705 144.953 179.007 174.925 179.007V178.007ZM228.223 124.76C228.223 154.151 204.292 178.007 174.925 178.007V179.007C204.843 179.007 229.223 154.705 229.223 124.76H228.223ZM144.171 104.619L162.516 153.797L163.453 153.448L145.108 104.269L144.171 104.619ZM150.933 104.014C150.885 103.516 150.885 103.516 150.885 103.516C150.885 103.516 150.885 103.516 150.885 103.516C150.885 103.516 150.885 103.516 150.885 103.516C150.884 103.516 150.884 103.516 150.883 103.516C150.882 103.517 150.879 103.517 150.876 103.517C150.87 103.518 150.86 103.519 150.848 103.52C150.823 103.522 150.786 103.526 150.738 103.53C150.642 103.539 150.5 103.552 150.322 103.568C149.964 103.6 149.457 103.643 148.857 103.69C147.656 103.784 146.09 103.891 144.621 103.944L144.657 104.944C146.147 104.889 147.728 104.781 148.935 104.687C149.539 104.64 150.05 104.596 150.41 104.564C150.59 104.548 150.733 104.535 150.831 104.526C150.879 104.521 150.917 104.518 150.942 104.515C150.955 104.514 150.965 104.513 150.971 104.513C150.975 104.512 150.977 104.512 150.979 104.512C150.98 104.512 150.98 104.512 150.981 104.512C150.981 104.512 150.981 104.512 150.981 104.512C150.981 104.512 150.981 104.512 150.981 104.512C150.981 104.512 150.982 104.512 150.933 104.014ZM150.631 98.5476C151.094 98.5291 151.47 98.7516 151.763 99.1742C152.064 99.609 152.254 100.232 152.29 100.897C152.327 101.562 152.208 102.213 151.953 102.698C151.704 103.173 151.345 103.461 150.874 103.517L150.993 104.51C151.867 104.406 152.476 103.854 152.839 103.163C153.196 102.483 153.333 101.642 153.289 100.842C153.245 100.043 153.017 99.2281 152.585 98.6048C152.145 97.9692 151.472 97.5132 150.591 97.5484L150.631 98.5476ZM137.861 99.1392C140.35 99.1392 143.55 98.9907 146.12 98.8428C147.407 98.7688 148.539 98.6947 149.349 98.6392C149.754 98.6114 150.078 98.5883 150.302 98.5721C150.414 98.564 150.5 98.5576 150.559 98.5533C150.588 98.5511 150.61 98.5494 150.625 98.5483C150.633 98.5477 150.639 98.5473 150.643 98.547C150.644 98.5469 150.646 98.5468 150.647 98.5467C150.647 98.5466 150.648 98.5466 150.648 98.5466C150.648 98.5466 150.648 98.5466 150.648 98.5466C150.648 98.5466 150.648 98.5466 150.611 98.048C150.573 97.5494 150.573 97.5494 150.573 97.5494C150.573 97.5494 150.573 97.5494 150.573 97.5495C150.572 97.5495 150.572 97.5495 150.571 97.5495C150.571 97.5496 150.569 97.5497 150.567 97.5498C150.564 97.5501 150.558 97.5505 150.551 97.5511C150.536 97.5522 150.514 97.5539 150.485 97.556C150.427 97.5603 150.341 97.5667 150.23 97.5747C150.007 97.5908 149.684 97.6139 149.28 97.6416C148.473 97.6969 147.345 97.7707 146.063 97.8444C143.496 97.9921 140.32 98.1392 137.861 98.1392V99.1392ZM134.716 99.0849C135.86 99.1393 136.893 99.1392 137.861 99.1392V98.1392C136.891 98.1392 135.88 98.1391 134.764 98.086L134.716 99.0849ZM174.927 76.4791C157.916 76.4791 142.966 85.0593 134.321 98.3123L135.159 98.8586C143.622 85.883 158.261 77.4791 174.927 77.4791V76.4791ZM207.813 89.1876C199.115 81.2034 187.589 76.4791 174.927 76.4791V77.4791C187.335 77.4791 198.62 82.1068 207.137 89.9243L207.813 89.1876ZM199.098 98.048C199.098 91.9953 204.005 89.5017 207.395 90.0495L207.555 89.0624C203.628 88.4278 198.098 91.3089 198.098 98.048H199.098ZM202.966 107.615C200.861 104.226 199.098 101.362 199.098 98.048H198.098C198.098 101.699 200.048 104.812 202.117 108.143L202.966 107.615ZM203.867 109.075C203.565 108.578 203.263 108.092 202.966 107.615L202.117 108.143C202.414 108.62 202.713 109.103 203.013 109.595L203.867 109.075ZM206.899 122.557C206.899 116.58 205.81 112.458 203.874 109.086L203.007 109.584C204.836 112.769 205.899 116.709 205.899 122.557H206.899ZM198.867 149.43C199.332 149.616 199.332 149.616 199.332 149.615C199.332 149.615 199.332 149.615 199.332 149.615C199.332 149.614 199.333 149.613 199.333 149.612C199.334 149.61 199.335 149.606 199.337 149.601C199.341 149.592 199.346 149.578 199.354 149.56C199.368 149.524 199.389 149.47 199.417 149.4C199.473 149.259 199.554 149.051 199.657 148.785C199.864 148.251 200.159 147.481 200.513 146.532C201.22 144.634 202.164 142.019 203.108 139.153C204.052 136.287 204.998 133.165 205.708 130.253C206.416 127.349 206.899 124.621 206.899 122.557H205.899C205.899 124.497 205.44 127.13 204.736 130.016C204.035 132.893 203.097 135.988 202.158 138.84C201.219 141.691 200.28 144.293 199.576 146.183C199.223 147.127 198.93 147.894 198.725 148.423C198.622 148.688 198.541 148.894 198.487 149.033C198.459 149.103 198.438 149.156 198.424 149.192C198.417 149.209 198.412 149.223 198.408 149.232C198.406 149.236 198.405 149.24 198.404 149.242C198.404 149.243 198.403 149.244 198.403 149.244C198.403 149.244 198.403 149.245 198.403 149.245C198.403 149.245 198.403 149.245 198.867 149.43ZM182.096 104.614L198.397 149.601L199.337 149.26L183.037 104.274L182.096 104.614ZM186.978 103.53C186.742 103.089 186.742 103.089 186.742 103.089C186.742 103.089 186.743 103.089 186.743 103.089C186.743 103.089 186.743 103.089 186.743 103.089C186.743 103.089 186.743 103.089 186.743 103.089C186.744 103.089 186.743 103.089 186.743 103.089C186.742 103.09 186.739 103.091 186.735 103.093C186.727 103.097 186.713 103.104 186.693 103.113C186.654 103.132 186.591 103.161 186.506 103.196C186.335 103.266 186.074 103.364 185.722 103.467C185.019 103.671 183.957 103.892 182.548 103.944L182.585 104.944C184.081 104.888 185.224 104.653 186.001 104.427C186.389 104.314 186.686 104.204 186.888 104.12C186.99 104.078 187.068 104.043 187.122 104.017C187.149 104.004 187.17 103.993 187.186 103.986C187.193 103.982 187.2 103.979 187.204 103.976C187.207 103.975 187.209 103.974 187.21 103.973C187.211 103.973 187.212 103.972 187.212 103.972C187.213 103.972 187.213 103.972 187.213 103.971C187.213 103.971 187.213 103.971 187.214 103.971C187.214 103.971 187.214 103.971 186.978 103.53ZM186.685 97.4722C187.119 97.4462 187.491 97.6714 187.795 98.1569C188.104 98.6511 188.297 99.361 188.335 100.115C188.372 100.869 188.251 101.607 187.99 102.154C187.731 102.695 187.37 102.989 186.928 103.033L187.028 104.028C187.931 103.938 188.539 103.324 188.892 102.585C189.242 101.852 189.377 100.938 189.333 100.066C189.29 99.194 189.067 98.3048 188.643 97.6267C188.213 96.9399 187.537 96.4193 186.625 96.474L186.685 97.4722ZM173.851 98.118C176.396 98.118 179.61 97.9559 182.181 97.7946C183.468 97.7138 184.596 97.633 185.403 97.5724C185.807 97.5421 186.13 97.5169 186.352 97.4992C186.463 97.4904 186.549 97.4834 186.608 97.4787C186.637 97.4763 186.659 97.4745 186.674 97.4732C186.681 97.4726 186.687 97.4721 186.691 97.4718C186.693 97.4717 186.694 97.4715 186.695 97.4715C186.696 97.4714 186.696 97.4714 186.696 97.4714C186.696 97.4714 186.696 97.4714 186.697 97.4713C186.697 97.4713 186.697 97.4713 186.655 96.9731C186.614 96.4748 186.614 96.4748 186.614 96.4748C186.614 96.4748 186.613 96.4748 186.613 96.4748C186.613 96.4748 186.613 96.4749 186.612 96.4749C186.611 96.475 186.61 96.4751 186.608 96.4752C186.605 96.4755 186.599 96.476 186.592 96.4766C186.577 96.4778 186.555 96.4796 186.526 96.482C186.469 96.4867 186.383 96.4936 186.273 96.5023C186.052 96.5199 185.73 96.5451 185.328 96.5752C184.525 96.6356 183.4 96.7161 182.118 96.7965C179.552 96.9576 176.363 97.118 173.851 97.118V98.118ZM161.316 96.9731C161.275 97.4714 161.276 97.4714 161.276 97.4714C161.276 97.4714 161.276 97.4714 161.276 97.4714C161.276 97.4714 161.276 97.4715 161.277 97.4715C161.278 97.4716 161.279 97.4717 161.281 97.4719C161.285 97.4722 161.291 97.4727 161.299 97.4733C161.314 97.4745 161.336 97.4763 161.366 97.4787C161.425 97.4834 161.512 97.4904 161.624 97.4992C161.848 97.5169 162.174 97.5422 162.58 97.5724C163.39 97.633 164.52 97.7138 165.797 97.7945C168.347 97.9559 171.494 98.118 173.851 98.118V97.118C171.528 97.118 168.408 96.9577 165.86 96.7965C164.588 96.7161 163.462 96.6356 162.654 96.5752C162.25 96.545 161.926 96.5199 161.702 96.5023C161.591 96.4935 161.504 96.4866 161.446 96.4819C161.417 96.4796 161.394 96.4778 161.38 96.4766C161.372 96.476 161.367 96.4755 161.363 96.4752C161.361 96.475 161.36 96.4749 161.359 96.4748C161.358 96.4748 161.358 96.4748 161.358 96.4748C161.357 96.4748 161.357 96.4747 161.357 96.4747C161.357 96.4747 161.357 96.4747 161.316 96.9731ZM161.014 103.031C160.587 103.014 160.237 102.75 159.981 102.22C159.721 101.683 159.599 100.941 159.637 100.175C159.674 99.41 159.868 98.6835 160.179 98.1755C160.486 97.6745 160.859 97.4466 161.286 97.4722L161.346 96.474C160.429 96.4189 159.753 96.9569 159.326 97.6535C158.904 98.343 158.681 99.2457 158.638 100.126C158.595 101.007 158.729 101.927 159.081 102.655C159.437 103.39 160.056 103.993 160.974 104.03L161.014 103.031ZM165.986 103.462L161.037 103.032L160.95 104.028L165.9 104.458L165.986 103.462ZM173.19 122.115L166.412 103.787L165.474 104.134L172.253 122.461L173.19 122.115ZM163.462 153.771L173.199 122.436L172.244 122.14L162.507 153.474L163.462 153.771ZM215.338 124.732L215.379 124.624L214.443 124.271L214.402 124.379L215.338 124.732ZM215.261 124.936L215.338 124.732L214.402 124.38L214.325 124.583L215.261 124.936ZM203.638 155.837C207.498 145.52 211.364 135.185 215.261 124.937L214.326 124.582C210.429 134.832 206.561 145.17 202.701 155.486L203.638 155.837ZM203.633 155.85L203.638 155.837L202.701 155.486L202.697 155.499L203.633 155.85ZM203.633 155.849L203.634 155.847L202.696 155.501L202.695 155.503L203.633 155.849ZM203.628 155.864L203.633 155.851L202.696 155.501L202.691 155.514L203.628 155.864ZM203.615 155.9L203.628 155.864L202.691 155.514L202.678 155.549L203.615 155.9ZM199.552 166.75C200.906 163.139 202.26 159.52 203.615 155.9L202.678 155.549C201.323 159.17 199.97 162.788 198.616 166.399L199.552 166.75ZM222.255 124.759C222.255 142.267 213.041 157.955 198.835 166.142L199.334 167.008C213.856 158.64 223.255 142.618 223.255 124.759H222.255ZM216.667 102.156C220.391 109.012 222.255 116.561 222.255 124.759H223.255C223.255 116.404 221.354 108.689 217.546 101.678L216.667 102.156ZM215.379 124.624C216.724 121.055 219.235 114.376 217.602 101.852L216.611 101.982C218.215 114.288 215.754 120.795 214.443 124.271L215.379 124.624ZM126.598 124.759C126.598 143.923 137.52 160.867 153.725 168.691L154.16 167.791C138.303 160.135 127.598 143.542 127.598 124.759H126.598ZM130.514 105.262C127.847 111.299 126.598 117.711 126.598 124.759H127.598C127.598 117.834 128.823 111.562 131.428 105.666L130.514 105.262ZM136.274 118.525C134.663 114.113 133.052 109.702 131.441 105.293L130.501 105.636C132.112 110.045 133.723 114.456 135.335 118.868L136.274 118.525ZM136.275 118.528L136.274 118.525L135.335 118.869L135.336 118.872L136.275 118.528ZM136.277 118.533L136.275 118.529L135.336 118.871L135.337 118.875L136.277 118.533ZM154.412 168.068C148.342 151.572 142.306 135.043 136.277 118.532L135.337 118.875C141.367 135.386 147.403 151.916 153.474 168.414L154.412 168.068ZM175.16 132.78L189.039 170.295L189.977 169.948L176.097 132.433L175.16 132.78ZM168.384 155.401C170.968 147.842 173.545 140.304 176.102 132.767L175.155 132.446C172.598 139.982 170.022 147.518 167.438 155.077L168.384 155.401ZM163.083 170.928C164.851 165.737 166.619 160.564 168.384 155.401L167.438 155.077C165.673 160.24 163.905 165.414 162.136 170.606L163.083 170.928ZM174.929 172.041C170.724 172.041 166.578 171.456 162.755 170.289L162.463 171.245C166.388 172.443 170.634 173.041 174.929 173.041V172.041ZM189.349 169.648C184.77 171.191 179.982 172.041 174.929 172.041V173.041C180.097 173.041 184.993 172.171 189.668 170.596L189.349 169.648Z" fill="#035D24"/>
<rect x="67.5" y="17.5" width="215" height="215" rx="107.5" stroke="#035D24" stroke-dasharray="2.35 2.35"/>
<rect x="14.5" y="-35.5" width="321" height="321" rx="156.022" stroke="#035D24" stroke-dasharray="2.35 2.35"/>
<path d="M276.743 151.153L266.5 161.521V113.218L298.803 145.914H287.332H286.512L286.888 146.643C287.51 147.851 291.463 155.915 292.117 157.505C292.208 157.725 292.276 158.179 292.26 158.804C292.244 159.412 292.149 160.127 291.957 160.837C291.563 162.288 290.806 163.573 289.643 164.041C288.37 164.553 286.89 164.561 285.693 164.426C285.1 164.359 284.591 164.258 284.23 164.174C284.084 164.141 283.963 164.11 283.871 164.085L277.547 151.283L277.236 150.654L276.743 151.153Z" fill="#D2FBE1" stroke="#035D24"/>
</g>
<defs>
<clipPath id="clip0_3473_44356">
<rect width="350" height="250" fill="white"/>
</clipPath>
</defs>
</svg>
