<svg width="24" height="24" viewBox="0 0 24 24" fill="none" xmlns="http://www.w3.org/2000/svg">
	<path fill-rule="evenodd" clip-rule="evenodd" d="M17 9.5H7C6.72386 9.5 6.5 9.72386 6.5 10V14C6.5 14.2761 6.72386 14.5 7 14.5H17C17.2761 14.5 17.5 14.2761 17.5 14V10C17.5 9.72386 17.2761 9.5 17 9.5ZM7 8C5.89543 8 5 8.89543 5 10V14C5 15.1046 5.89543 16 7 16H17C18.1046 16 19 15.1046 19 14V10C19 8.89543 18.1046 8 17 8H7Z" fill="#1E1E1E"/>
	<path fill-rule="evenodd" clip-rule="evenodd" d="M17 6H7V4.5H17V6Z" fill="#1E1E1E"/>
	<path fill-rule="evenodd" clip-rule="evenodd" d="M17 19.5H7V18H17V19.5Z" fill="#1E1E1E"/>
</svg>
