<svg xmlns="http://www.w3.org/2000/svg" width="24" height="24" viewBox="0 0 24 24">
    <path fill-rule="evenodd" d="M7.625 5.5h8.75c.069 0 .125.056.125.125v12.75a.125.125 0 01-.125.125h-8.75a.125.125 0 01-.125-.125V5.625c0-.069.056-.125.125-.125zM6 5.625C6 4.728 6.728 4 7.625 4h8.75C17.273 4 18 4.728 18 5.625V7.25A2.75 2.75 0 0120.75 10v5A2.75 2.75 0 0118 17.75v.625c0 .898-.727 1.625-1.625 1.625h-8.75A1.625 1.625 0 016 18.375v-.625A2.75 2.75 0 013.25 15v-5A2.75 2.75 0 016 7.25V5.625zM6 8.75c-.69 0-1.25.56-1.25 1.25v5c0 .69.56 1.25 1.25 1.25v-7.5zm12 7.5c.69 0 1.25-.56 1.25-1.25v-5c0-.69-.56-1.25-1.25-1.25v7.5z"/>
</svg>