<svg xmlns="http://www.w3.org/2000/svg" width="24" height="24" viewBox="0 0 24 24">
    <path d="M16 9a1 1 0 100-2 1 1 0 000 2z"/>
    <path fill-rule="evenodd" d="M16 12a4 4 0 100-8 4 4 0 000 8zm0-1.5a2.5 2.5 0 100-5 2.5 2.5 0 000 5z"/>
    <path d="M6 7h4.083a6.036 6.036 0 00-.063 1.5H6a.5.5 0 00-.5.5v5.708l3.63-2.647a.75.75 0 01.85-.023l2.926 1.896.525-.51a5.96 5.96 0 001.634.504l-1.542 1.499a.75.75 0 01-.93.092l-2.996-1.942L5.5 16.564V18a.5.5 0 00.5.5h9a.5.5 0 00.5-.5v-4.02a6.081 6.081 0 001.5-.063V18a2 2 0 01-2 2H6a2 2 0 01-2-2V9a2 2 0 012-2z"/>
</svg>
