<svg width="24" height="24" viewBox="0 0 24 24" fill="none" xmlns="http://www.w3.org/2000/svg">
<path d="M12 4.75C12 4.33579 11.6642 4 11.25 4H6C4.89543 4 4 4.89543 4 6V18C4 19.1046 4.89543 20 6 20H18C19.1046 20 20 19.1046 20 18V13.75C20 13.3358 19.6642 13 19.25 13C18.8358 13 18.5 13.3358 18.5 13.75V18C18.5 18.2761 18.2761 18.5 18 18.5H6C5.72386 18.5 5.5 18.2761 5.5 18V6C5.5 5.72386 5.72386 5.5 6 5.5H11.25C11.6642 5.5 12 5.16421 12 4.75Z" fill="#1E1E1E"/>
<path d="M10 15V9L15 12L10 15Z" fill="#1E1E1E"/>
<path d="M17.024 7.18397L16.9408 7.05917L16.816 6.97596L15.3521 6L16.816 5.02404L16.9408 4.94083L17.024 4.81603L18 3.35208L18.976 4.81603L19.0592 4.94083L19.184 5.02404L20.6479 6L19.184 6.97596L19.0592 7.05917L18.976 7.18397L18 8.64792L17.024 7.18397Z" stroke="#1E1E1E" stroke-width="1.5"/>
</svg>
