<svg width="24" height="24" viewBox="0 0 24 24" fill="none" xmlns="http://www.w3.org/2000/svg">
    <path fill-rule="evenodd" clip-rule="evenodd" d="M17.9536 12.75C17.9842 12.5043 18 12.254 18 12C18 11.746 17.9842 11.4957 17.9536 11.25H20.25V9H21.75V15H20.25V12.75H17.9536ZM6.04642 12.75H3.75V15H2.25V9H3.75V11.25H6.04642C6.01578 11.4957 6 11.746 6 12C6 12.254 6.01578 12.5043 6.04642 12.75Z" fill="currentColor"/>
    <path fill-rule="evenodd" clip-rule="evenodd" d="M12 18C15.3137 18 18 15.3137 18 12C18 8.68629 15.3137 6 12 6C8.68629 6 6 8.68629 6 12C6 15.3137 8.68629 18 12 18ZM8.75 12C8.75 10.2051 10.2051 8.75 12 8.75C13.7949 8.75 15.25 10.2051 15.25 12C15.25 13.7949 13.7949 15.25 12 15.25C10.2051 15.25 8.75 13.7949 8.75 12ZM12 7.25C9.37665 7.25 7.25 9.37665 7.25 12C7.25 14.6234 9.37665 16.75 12 16.75C14.6234 16.75 16.75 14.6234 16.75 12C16.75 9.37665 14.6234 7.25 12 7.25Z" fill="currentColor"/>
</svg>
