<svg viewBox="0 0 24 24" fill="none" xmlns="http://www.w3.org/2000/svg">
<path d="M17.566 18.434L17 17L16.434 18.434L15 19L16.434 19.566L17 21L17.566 19.566L19 19L17.566 18.434Z" fill="#1E1E1E"/>
<path d="M7.566 5.434L7 4L6.434 5.434L5 6L6.434 6.566L7 8L7.566 6.566L9 6L7.566 5.434Z" fill="#1E1E1E"/>
<path d="M17.849 5.151L17 3L16.151 5.151L14 6L16.151 6.849L17 9L17.849 6.849L20 6L17.849 5.151Z" fill="#1E1E1E"/>
<path fill-rule="evenodd" clip-rule="evenodd" d="M12.2228 8.06464C12.0289 7.97845 11.8076 7.97845 11.6136 8.06464L6.4454 10.3616C6.17455 10.482 6 10.7506 6 11.047C6 11.3434 6.17455 11.612 6.4454 11.7324L8.297 12.5553V15.9154C8.297 16.1686 8.42479 16.4047 8.63679 16.5432L9.047 15.9154C8.63679 16.5432 8.63689 16.5433 8.637 16.5434L8.63726 16.5436L8.63788 16.544L8.63958 16.5451L8.64477 16.5484L8.66212 16.5596C8.67673 16.5689 8.69735 16.5819 8.72348 16.5982C8.77568 16.6307 8.85008 16.676 8.9425 16.7301C9.12671 16.8378 9.38575 16.9818 9.68573 17.127C10.2556 17.4028 11.0864 17.7399 11.8513 17.7499C12.6438 17.7604 13.5089 17.4218 14.1023 17.1421C14.4148 16.9949 14.6848 16.8478 14.8769 16.7375C14.9733 16.6822 15.0508 16.6356 15.1053 16.6023C15.1325 16.5856 15.154 16.5722 15.1692 16.5626L15.1873 16.5512L15.1927 16.5478L15.1945 16.5466L15.1951 16.5462L15.1954 16.546C15.1955 16.546 15.1956 16.5459 14.7895 15.9154L15.1956 16.5459C15.41 16.4078 15.5395 16.1703 15.5395 15.9154V12.5553L17.3911 11.7324C17.6619 11.612 17.8365 11.3434 17.8365 11.047C17.8365 10.7506 17.6619 10.482 17.3911 10.3616L12.2228 8.06464ZM14.0395 13.222L12.2228 14.0294C12.0289 14.1155 11.8076 14.1155 11.6136 14.0294L9.797 13.222V15.4913C9.94504 15.5755 10.1314 15.6762 10.3391 15.7768C10.8819 16.0394 11.4582 16.2446 11.871 16.2501C12.2979 16.2557 12.8969 16.052 13.4629 15.7853C13.6847 15.6807 13.8832 15.5754 14.0395 15.488V13.222ZM11.9182 12.5233L8.59666 11.047L11.9182 9.57074L15.2398 11.047L11.9182 12.5233Z" fill="#1E1E1E"/>
</svg>
