<svg width="24" height="24" viewBox="0 0 24 24" fill="none" xmlns="http://www.w3.org/2000/svg">
	<rect x="4.00391" y="16.0017" width="16" height="1.5" fill="currentColor"/>
	<rect x="4.00391" y="20.0017" width="9" height="1.5" fill="currentColor"/>
	<path fill-rule="evenodd" clip-rule="evenodd" d="M15.5 7.50168C16.8807 7.50168 18 6.38239 18 5.00168C18 3.62097 16.8807 2.50168 15.5 2.50168C14.1193 2.50168 13 3.62097 13 5.00168C13 6.38239 14.1193 7.50168 15.5 7.50168ZM15.5 6.00168C16.0523 6.00168 16.5 5.55396 16.5 5.00168C16.5 4.44939 16.0523 4.00168 15.5 4.00168C14.9477 4.00168 14.5 4.44939 14.5 5.00168C14.5 5.55396 14.9477 6.00168 15.5 6.00168Z" fill="currentColor"/>
	<path d="M13.25 13.5017V11.5017C13.25 9.9829 12.0188 8.75168 10.5 8.75168H6.5C4.98122 8.75168 3.75 9.98289 3.75 11.5017V13.5017H5.25V11.5017C5.25 10.8113 5.80964 10.2517 6.5 10.2517H10.5C11.1904 10.2517 11.75 10.8113 11.75 11.5017V13.5017H13.25Z" fill="currentColor"/>
	<path d="M20.25 11.5017V13.5017H18.75V11.5017C18.75 10.8113 18.1904 10.2517 17.5 10.2517H15V8.75168H17.5C19.0188 8.75168 20.25 9.9829 20.25 11.5017Z" fill="currentColor"/>
	<path fill-rule="evenodd" clip-rule="evenodd" d="M11 5.00168C11 6.38239 9.88071 7.50168 8.5 7.50168C7.11929 7.50168 6 6.38239 6 5.00168C6 3.62097 7.11929 2.50168 8.5 2.50168C9.88071 2.50168 11 3.62097 11 5.00168ZM9.5 5.00168C9.5 5.55396 9.05228 6.00168 8.5 6.00168C7.94772 6.00168 7.5 5.55396 7.5 5.00168C7.5 4.44939 7.94772 4.00168 8.5 4.00168C9.05228 4.00168 9.5 4.44939 9.5 5.00168Z" fill="currentColor"/>
</svg>
